<?xml version="1.0" standalone="no"?>
<!DOCTYPE svg PUBLIC "-//W3C//DTD SVG 20010904//EN"
 "http://www.w3.org/TR/2001/REC-SVG-20010904/DTD/svg10.dtd">
<svg version="1.0" xmlns="http://www.w3.org/2000/svg"
 width="742.000000pt" height="807.000000pt" viewBox="0 0 742.000000 807.000000"
 preserveAspectRatio="xMidYMid meet">
<metadata>
Created by potrace 1.16, written by Peter Selinger 2001-2019
</metadata>
<g transform="translate(0.000000,807.000000) scale(0.100000,-0.100000)"
fill="#000000" stroke="none">
<path d="M2685 7863 c-161 -22 -313 -106 -416 -230 -52 -63 -115 -192 -129
-268 -8 -44 -10 -969 -8 -3370 l3 -3310 22 -62 c58 -159 175 -293 315 -363
147 -72 110 -70 1187 -70 l963 0 -35 39 c-36 40 -67 120 -67 173 0 16 9 110
19 211 33 304 33 323 3 359 -17 20 -25 41 -24 62 6 110 4 123 -30 201 -19 44
-63 129 -96 190 -72 128 -82 165 -58 210 17 32 17 33 -21 125 l-38 94 -108 72
c-183 123 -296 218 -566 479 -203 195 -231 227 -378 430 -145 199 -247 357
-409 631 -10 17 -27 23 -80 29 -37 4 -73 9 -80 12 -7 2 -23 37 -35 76 -13 40
-72 169 -131 287 -122 246 -143 297 -163 392 -25 116 -18 232 26 428 26 115
38 139 101 206 41 43 49 58 46 84 l-3 31 -114 3 c-126 4 -157 17 -173 72 -5
16 -18 58 -30 93 -26 83 -25 109 7 216 37 121 74 213 157 385 38 80 80 168 93
195 14 28 44 104 69 170 49 133 113 260 191 380 115 177 195 235 362 260 54 8
116 15 139 15 22 0 46 6 52 13 7 6 59 17 116 23 57 7 113 18 124 25 34 21 49
65 62 174 7 55 14 104 17 108 3 5 -4 15 -15 23 -28 19 -44 73 -46 149 -1 70
19 105 59 105 20 0 22 7 33 118 10 94 18 129 43 179 30 62 50 82 131 128 l43
25 -550 -2 c-302 0 -563 -3 -580 -5z m11 -6318 c6 -22 39 -134 73 -249 33
-115 63 -211 66 -214 3 -3 5 110 5 252 l0 257 98 -3 97 -3 0 -480 0 -480 -107
-3 c-124 -3 -115 -10 -147 109 -11 41 -42 153 -68 249 l-48 175 -5 -265 -5
-265 -97 -3 -98 -3 0 486 0 486 112 -3 112 -3 12 -40z m875 13 c67 -39 89 -91
89 -207 0 -103 -14 -145 -63 -187 l-33 -29 35 -20 c20 -12 47 -40 61 -65 21
-38 25 -58 25 -135 0 -122 -16 -169 -75 -227 -63 -61 -105 -69 -330 -66 l-175
3 -3 470 c-1 259 0 476 3 483 4 11 47 13 212 10 206 -3 209 -3 254 -30z m598
-5 c5 -21 21 -103 36 -183 14 -80 33 -179 40 -220 74 -392 95 -504 95 -516 0
-11 -22 -14 -114 -14 -63 0 -117 4 -120 9 -4 5 -9 38 -12 73 -3 34 -7 78 -10
96 l-5 33 -72 -3 -72 -3 -7 -70 c-4 -38 -10 -85 -13 -102 l-6 -33 -109 0
c-125 0 -121 -4 -100 97 6 26 24 125 41 218 34 194 93 514 109 594 5 29 10 55
10 57 0 2 67 4 150 4 l149 0 10 -37z"/>
<path d="M3347 1413 c-4 -3 -7 -51 -7 -105 l0 -98 39 0 c23 0 48 8 62 19 21
17 24 28 24 86 0 58 -3 69 -24 86 -22 18 -81 26 -94 12z"/>
<path d="M3345 1038 c-3 -8 -4 -66 -3 -129 l3 -114 50 3 c71 3 79 16 79 117 0
73 -3 88 -21 106 -26 26 -100 38 -108 17z"/>
<path d="M4007 1340 c-19 -96 -45 -336 -38 -343 5 -5 26 -7 47 -5 45 4 44 -22
14 233 -13 114 -18 142 -23 115z"/>
<path d="M4092 7858 c10 -7 36 -24 58 -38 23 -14 50 -40 62 -57 11 -18 25 -33
32 -33 16 0 49 -37 70 -77 34 -68 16 -226 -38 -331 -15 -30 -15 -34 0 -58 15
-22 16 -30 4 -62 -20 -56 -88 -159 -108 -164 -10 -3 -40 -44 -67 -92 -28 -51
-67 -104 -93 -126 -37 -33 -43 -44 -40 -71 3 -30 10 -37 78 -72 86 -44 140
-83 140 -100 0 -7 52 -48 116 -92 64 -44 139 -105 166 -135 60 -67 120 -187
147 -297 22 -84 41 -265 41 -387 0 -38 11 -123 24 -190 13 -67 32 -161 41
-211 12 -68 31 -123 79 -225 72 -153 101 -241 116 -355 10 -73 24 -153 36
-197 3 -10 26 -23 59 -33 30 -8 60 -23 67 -31 25 -31 54 -56 87 -77 19 -12 37
-29 41 -37 29 -62 43 -88 60 -110 20 -25 20 -14 17 1565 -2 1515 -3 1593 -20
1645 -71 211 -223 363 -432 431 -67 22 -87 23 -415 26 -280 3 -342 1 -328 -9z"/>
<path d="M4164 5707 c-75 -44 -163 -107 -179 -129 -24 -35 -174 -422 -185
-476 l-9 -47 48 -42 c62 -54 75 -85 165 -404 122 -431 112 -386 91 -409 -18
-20 -17 -26 22 -188 57 -230 82 -387 108 -672 12 -125 66 -270 158 -420 107
-174 134 -264 202 -671 24 -146 49 -278 55 -294 6 -15 24 -45 41 -67 17 -21
49 -72 70 -114 46 -88 48 -120 19 -243 -36 -150 -41 -207 -24 -311 20 -133 34
-189 57 -233 14 -28 18 -48 13 -81 -5 -34 1 -67 33 -167 84 -260 76 -386 -32
-497 l-42 -43 30 7 c17 3 63 20 103 36 161 66 290 208 350 382 l27 81 3 1265
c1 696 1 1366 0 1489 l-3 225 -37 -61 c-97 -157 -305 -273 -489 -273 -55 0
-173 28 -234 55 -158 70 -293 239 -325 404 -55 293 100 560 392 670 l28 10
-27 63 c-15 35 -59 128 -99 208 -39 80 -86 178 -104 219 -33 76 -82 289 -136
594 -15 86 -33 157 -38 157 -6 0 -29 -11 -52 -23z"/>
</g>
</svg>
