<?xml version="1.0" encoding="UTF-8"?>
<svg version="1.1" xmlns="http://www.w3.org/2000/svg" width="512" height="512">
<path d="M0 0 C2.53328803 2.22445226 4.98985527 4.509411 7.43359375 6.83203125 C8.26262207 7.61223633 8.26262207 7.61223633 9.10839844 8.40820312 C28.53172987 26.7982676 43.37866044 48.4976275 54.43359375 72.83203125 C54.76456055 73.55487305 55.09552734 74.27771484 55.43652344 75.02246094 C60.12783904 85.460077 63.50740343 96.05226164 66.30859375 107.14453125 C66.73797241 108.84174316 66.73797241 108.84174316 67.17602539 110.57324219 C70.84988715 125.82523456 71.84481967 140.59558616 71.80859375 156.20703125 C71.80771759 157.13167175 71.80684143 158.05631226 71.80593872 159.00897217 C71.75935022 173.94985631 70.97155693 188.25118155 67.43359375 202.83203125 C67.1922168 203.82750977 66.95083984 204.82298828 66.70214844 205.84863281 C53.66902128 257.63687015 21.462269 303.23804616 -23.75390625 331.89453125 C-26.01442575 333.23142745 -28.27957173 334.54220259 -30.56640625 335.83203125 C-31.29359863 336.24807617 -32.02079102 336.66412109 -32.77001953 337.09277344 C-53.42315468 348.79467216 -75.23110427 356.53285618 -98.56640625 360.83203125 C-99.92403076 361.10805176 -99.92403076 361.10805176 -101.30908203 361.38964844 C-112.11808436 363.36387937 -122.99187569 363.22873759 -133.94140625 363.20703125 C-135.48125687 363.20621552 -135.48125687 363.20621552 -137.05221558 363.2053833 C-151.95157797 363.1690111 -166.09301364 362.66476762 -180.56640625 358.83203125 C-181.86626465 358.51057129 -181.86626465 358.51057129 -183.19238281 358.18261719 C-210.97178354 351.26545579 -236.81496727 339.23165472 -259.56640625 321.83203125 C-260.54609375 321.084375 -261.52578125 320.33671875 -262.53515625 319.56640625 C-306.17357336 284.91236913 -333.59110725 235.3469351 -340.35598755 180.02513123 C-340.72216067 176.20867266 -340.74954265 172.39806029 -340.76953125 168.56640625 C-340.77808136 167.256185 -340.77808136 167.256185 -340.7868042 165.91949463 C-340.79620581 164.07394602 -340.8027688 162.22838099 -340.80664062 160.3828125 C-340.81623485 157.63118943 -340.84725771 154.88035105 -340.87890625 152.12890625 C-340.98044696 135.39131438 -338.96502962 119.24047273 -334.50390625 103.08203125 C-334.20718018 101.99986328 -333.9104541 100.91769531 -333.60473633 99.80273438 C-318.22695066 45.97070969 -281.14695784 1.79310641 -232.55664062 -25.28808594 C-216.01642401 -34.30624424 -197.93236593 -41.01262436 -179.56640625 -45.16796875 C-178.71852539 -45.36406738 -177.87064453 -45.56016602 -176.99707031 -45.76220703 C-114.50020045 -59.56388125 -48.38873525 -40.87632886 0 0 Z " fill="#030303" transform="translate(390.56640625,100.16796875)"/>
<path d="M0 0 C0.76054687 0.00829834 1.52109375 0.01659668 2.3046875 0.02514648 C19.6325494 0.51128159 36.32690922 4.03850915 52 11.4375 C52.66854004 11.75235352 53.33708008 12.06720703 54.02587891 12.39160156 C68.14008884 19.18771636 79.72166592 28.69472927 91 39.4375 C91.75796875 40.13101563 92.5159375 40.82453125 93.296875 41.5390625 C104.40087712 52.03518129 113.55751185 65.14404384 121 78.4375 C121.59723877 79.49275879 121.59723877 79.49275879 122.20654297 80.56933594 C129.38815222 93.36625117 136.29815686 106.67544488 138 121.4375 C116.28091743 128.63435576 96.96454233 124.09476191 76 116.4375 C75.32358701 119.80646592 75.32358701 119.80646592 75 123.4375 C76.8312811 126.24849414 76.8312811 126.24849414 79 128.4375 C79 129.0975 79 129.7575 79 130.4375 C79.969375 130.55996094 80.93875 130.68242187 81.9375 130.80859375 C84.7505432 131.20814172 87.48603357 131.75340296 90.25 132.41015625 C99.55141407 134.58084683 108.4956023 135.8366259 118.0625 135.875 C118.98869141 135.88474854 119.91488281 135.89449707 120.86914062 135.90454102 C127.60872648 135.8219244 133.58822885 134.46997184 140 132.4375 C142.20971003 138.64034744 142.23565619 144.33351698 142.125 150.875 C142.11597656 151.89271484 142.10695313 152.91042969 142.09765625 153.95898438 C142.07424698 156.45207156 142.041457 158.94465859 142 161.4375 C138.68872971 162.71155325 135.37576271 163.98113816 132.0625 165.25 C131.13630859 165.60642578 130.21011719 165.96285156 129.25585938 166.33007812 C123.5467197 168.51357365 117.81655257 170.55965174 112 172.4375 C111.32735107 172.65784912 110.65470215 172.87819824 109.96166992 173.10522461 C102.03289244 175.69105519 94.23712822 178.02174359 86 179.4375 C85.67 182.4075 85.34 185.3775 85 188.4375 C96.44098787 185.95861929 107.64060765 183.08506548 118.75 179.375 C119.73613281 179.04693359 120.72226562 178.71886719 121.73828125 178.38085938 C127.01947478 176.5809424 132.1027126 174.59045028 137.13378906 172.17407227 C139 171.4375 139 171.4375 142 171.4375 C141.74729106 176.11261546 141.40474133 180.77310296 141 185.4375 C140.93554688 186.33597656 140.87109375 187.23445312 140.8046875 188.16015625 C140.36182489 191.4702704 139.86723279 193.68818529 137.27807617 195.92529297 C131.26083033 199.74565919 125.10512104 203.21676275 118.8125 206.5625 C116.65860251 207.71697853 114.50496164 208.87193595 112.3515625 210.02734375 C111.2780957 210.60210449 110.20462891 211.17686523 109.09863281 211.76904297 C106.31405533 213.26839709 103.54079256 214.78556302 100.7734375 216.31640625 C90.05820369 222.24178603 79.24785985 227.97831721 68.37686157 233.61196899 C66.86050902 234.39854801 65.34530566 235.18734732 63.83139038 235.97860718 C51.50749274 242.41228904 39.05554651 248.57943943 25.4375 251.75 C24.15746094 252.05550781 22.87742187 252.36101562 21.55859375 252.67578125 C-0.41335376 257.37888747 -25.55588586 256.60920925 -45 244.4375 C-61.5475993 233.01926343 -75.57740107 218.62365391 -86 201.4375 C-86.36528809 200.84710938 -86.73057617 200.25671875 -87.10693359 199.6484375 C-91.93158402 191.72650804 -95.29272033 183.42378165 -98.375 174.6875 C-98.70910889 173.74124756 -99.04321777 172.79499512 -99.38745117 171.82006836 C-102.07499101 163.8736668 -104.18709077 155.87737266 -104 147.4375 C-101.4366898 149.89827779 -99.10521867 152.47889282 -96.8125 155.1875 C-77.11066606 177.68007998 -48.31351136 186.20360279 -20.20800781 192.85253906 C-18 193.4375 -18 193.4375 -16 194.4375 C-16 190.1475 -16 185.8575 -16 181.4375 C-17.175625 181.355 -18.35125 181.2725 -19.5625 181.1875 C-48.48057402 177.84050069 -80.04645355 164.64403945 -101 144.4375 C-101.69496582 143.84767334 -102.38993164 143.25784668 -103.10595703 142.65014648 C-105.47392622 139.88385301 -105.50299717 138.5224594 -105.49609375 134.921875 C-105.49915527 133.84357422 -105.5022168 132.76527344 -105.50537109 131.65429688 C-105.48297363 130.51025391 -105.46057617 129.36621094 -105.4375 128.1875 C-105.41550537 126.4250293 -105.41550537 126.4250293 -105.39306641 124.62695312 C-104.91479658 102.48641095 -98.36642215 79.98713322 -86 61.4375 C-75.8567599 58.05641997 -64.14645051 61.11602923 -54 63.4375 C-52.90429688 63.68113281 -51.80859375 63.92476562 -50.6796875 64.17578125 C-38.93366628 67.16181797 -28.01282927 72.4713016 -17 77.4375 C-17 74.1375 -17 70.8375 -17 67.4375 C-17.67417969 67.33953125 -18.34835938 67.2415625 -19.04296875 67.140625 C-22.69260932 66.27281086 -25.92721218 64.75918159 -29.3125 63.1875 C-37.34896098 59.55552965 -45.52449477 56.84486181 -54 54.4375 C-54.62132812 54.25501709 -55.24265625 54.07253418 -55.8828125 53.88452148 C-58.37354944 53.35862903 -60.65762605 53.32504434 -63.203125 53.33984375 C-64.1828125 53.34306641 -65.1625 53.34628906 -66.171875 53.34960938 C-67.18765625 53.35798828 -68.2034375 53.36636719 -69.25 53.375 C-70.28125 53.37951172 -71.3125 53.38402344 -72.375 53.38867188 C-74.91672573 53.40043912 -77.45833319 53.41687989 -80 53.4375 C-68.225868 29.10386819 -40.12638487 13.11614418 -16 3.4375 C-15.35015137 3.15865967 -14.70030273 2.87981934 -14.03076172 2.5925293 C-9.3420831 0.66643429 -5.0858369 -0.07448124 0 0 Z " fill="#FCFCFC" transform="translate(224,125.5625)"/>
<path d="M0 0 C0.96860962 -0.0127597 1.93721924 -0.02551941 2.93518066 -0.03866577 C3.98717651 -0.04089142 5.03917236 -0.04311707 6.12304688 -0.04541016 C7.20630249 -0.05206696 8.28955811 -0.05872375 9.40563965 -0.06558228 C11.70563049 -0.07572723 14.00565087 -0.08039873 16.30566406 -0.08007812 C19.79998603 -0.0844207 23.29301366 -0.1206369 26.78710938 -0.15869141 C29.02408424 -0.16456552 31.26106509 -0.16853093 33.49804688 -0.17041016 C34.53384888 -0.18478119 35.56965088 -0.19915222 36.63684082 -0.21395874 C45.69802837 -0.15785658 54.3655325 2.26557174 61.34179688 8.29052734 C67.85685103 17.23306562 69.65260408 25.05781038 69.67773438 35.90380859 C69.68771957 37.41819771 69.68771957 37.41819771 69.69790649 38.96318054 C69.70799696 41.0920531 69.71272464 43.22095707 69.71240234 45.34985352 C69.71676924 48.5825696 69.75311103 51.81391226 69.79101562 55.04638672 C69.79688602 57.12385606 69.80085392 59.20133181 69.80273438 61.27880859 C69.81710541 62.23330399 69.83147644 63.18779938 69.84628296 64.17121887 C69.7832134 73.57668683 67.05363154 81.57869268 60.34179688 88.29052734 C59.68179688 88.29052734 59.02179688 88.29052734 58.34179688 88.29052734 C58.34179688 88.95052734 58.34179688 89.61052734 58.34179688 90.29052734 C59.16679687 90.43490234 59.99179687 90.57927734 60.84179688 90.72802734 C66.86466407 93.41680734 71.47243257 98.88156112 74.27929688 104.85302734 C76.53252505 112.14288319 76.51169889 119.54852503 76.54492188 127.11474609 C76.55062195 128.13800491 76.55632202 129.16126373 76.56219482 130.2155304 C76.57160074 132.37292461 76.57816116 134.5303329 76.58203125 136.68774414 C76.59171601 139.95078221 76.62277375 143.2131841 76.65429688 146.47607422 C76.80672683 176.14953096 76.80672683 176.14953096 67.34179688 186.29052734 C64.49664869 188.61049584 61.53927675 190.49555218 58.34179688 192.29052734 C57.31054688 192.88865234 56.27929688 193.48677734 55.21679688 194.10302734 C48.42135681 196.90983954 41.02508718 196.45083857 33.79101562 196.45849609 C32.69586136 196.46182449 31.60070709 196.46515289 30.47236633 196.46858215 C28.16867491 196.47362643 25.86497624 196.47599125 23.5612793 196.47583008 C20.02380593 196.47803076 16.4866376 196.49625152 12.94921875 196.51513672 C10.70898544 196.51806824 8.46875065 196.52005465 6.22851562 196.52099609 C5.16710861 196.52818161 4.1057016 196.53536713 3.01213074 196.54277039 C2.03383804 196.53969376 1.05554535 196.53661713 0.04760742 196.53344727 C-0.81508255 196.53487228 -1.67777252 196.5362973 -2.56660461 196.5377655 C-4.65820312 196.29052734 -4.65820312 196.29052734 -6.65820312 194.29052734 C-6.85566707 191.74925015 -6.92750143 189.31686422 -6.91217041 186.77441406 C-6.91529039 185.99007429 -6.91841037 185.20573452 -6.9216249 184.39762688 C-6.92963698 181.75508098 -6.92326885 179.11276267 -6.91699219 176.47021484 C-6.91970063 174.58156194 -6.92326073 172.69291009 -6.9276123 170.80426025 C-6.93675608 165.66388628 -6.93318388 160.52359229 -6.92685413 155.38321686 C-6.9218044 150.01361367 -6.92648272 144.64401751 -6.92962646 139.27441406 C-6.93326912 130.25568406 -6.92845918 121.23698676 -6.91894531 112.21826172 C-6.9080602 101.77884487 -6.91158556 91.33950613 -6.92259812 80.90009117 C-6.9316625 71.95061764 -6.93296045 63.00116769 -6.92772079 54.05169106 C-6.9245964 48.70060571 -6.92420455 43.34955713 -6.93079376 37.99847412 C-6.93655426 32.96868976 -6.93259419 27.93900649 -6.92100525 22.90923309 C-6.9183517 21.0588574 -6.91913552 19.20847326 -6.92353058 17.35810089 C-6.9289602 14.84083104 -6.92218363 12.32388932 -6.91217041 9.80664062 C-6.91663185 9.06676847 -6.9210933 8.32689632 -6.92568994 7.56460381 C-6.88026813 1.7159737 -5.87605303 0.05247714 0 0 Z " fill="#030303" transform="translate(223.658203125,160.70947265625)"/>
<path d="M0 0 C2.53328803 2.22445226 4.98985527 4.509411 7.43359375 6.83203125 C8.26262207 7.61223633 8.26262207 7.61223633 9.10839844 8.40820312 C28.53172987 26.7982676 43.37866044 48.4976275 54.43359375 72.83203125 C54.76456055 73.55487305 55.09552734 74.27771484 55.43652344 75.02246094 C60.12783904 85.460077 63.50740343 96.05226164 66.30859375 107.14453125 C66.73797241 108.84174316 66.73797241 108.84174316 67.17602539 110.57324219 C70.84988715 125.82523456 71.84481967 140.59558616 71.80859375 156.20703125 C71.80771759 157.13167175 71.80684143 158.05631226 71.80593872 159.00897217 C71.75935022 173.94985631 70.97155693 188.25118155 67.43359375 202.83203125 C67.1922168 203.82750977 66.95083984 204.82298828 66.70214844 205.84863281 C53.66902128 257.63687015 21.462269 303.23804616 -23.75390625 331.89453125 C-26.01442575 333.23142745 -28.27957173 334.54220259 -30.56640625 335.83203125 C-31.29359863 336.24807617 -32.02079102 336.66412109 -32.77001953 337.09277344 C-53.42315468 348.79467216 -75.23110427 356.53285618 -98.56640625 360.83203125 C-99.92403076 361.10805176 -99.92403076 361.10805176 -101.30908203 361.38964844 C-112.11808436 363.36387937 -122.99187569 363.22873759 -133.94140625 363.20703125 C-135.48125687 363.20621552 -135.48125687 363.20621552 -137.05221558 363.2053833 C-151.95157797 363.1690111 -166.09301364 362.66476762 -180.56640625 358.83203125 C-181.86626465 358.51057129 -181.86626465 358.51057129 -183.19238281 358.18261719 C-210.97178354 351.26545579 -236.81496727 339.23165472 -259.56640625 321.83203125 C-260.54609375 321.084375 -261.52578125 320.33671875 -262.53515625 319.56640625 C-306.17357336 284.91236913 -333.59110725 235.3469351 -340.35598755 180.02513123 C-340.72216067 176.20867266 -340.74954265 172.39806029 -340.76953125 168.56640625 C-340.77808136 167.256185 -340.77808136 167.256185 -340.7868042 165.91949463 C-340.79620581 164.07394602 -340.8027688 162.22838099 -340.80664062 160.3828125 C-340.81623485 157.63118943 -340.84725771 154.88035105 -340.87890625 152.12890625 C-340.98044696 135.39131438 -338.96502962 119.24047273 -334.50390625 103.08203125 C-334.20718018 101.99986328 -333.9104541 100.91769531 -333.60473633 99.80273438 C-318.22695066 45.97070969 -281.14695784 1.79310641 -232.55664062 -25.28808594 C-216.01642401 -34.30624424 -197.93236593 -41.01262436 -179.56640625 -45.16796875 C-178.71852539 -45.36406738 -177.87064453 -45.56016602 -176.99707031 -45.76220703 C-114.50020045 -59.56388125 -48.38873525 -40.87632886 0 0 Z M-184.06640625 -36.91796875 C-185.22148682 -36.60436401 -185.22148682 -36.60436401 -186.39990234 -36.28442383 C-219.5957463 -26.98110855 -248.78021549 -10.08629569 -273.56640625 13.83203125 C-274.46617187 14.66863281 -275.3659375 15.50523438 -276.29296875 16.3671875 C-288.90040111 28.41146366 -298.83196797 42.80956191 -307.56640625 57.83203125 C-308.09741943 58.73937012 -308.09741943 58.73937012 -308.63916016 59.66503906 C-330.59561354 97.6432123 -338.04088794 143.34541547 -331.31640625 186.45703125 C-331.21407684 187.12190552 -331.11174744 187.78677979 -331.00631714 188.47180176 C-326.32239402 218.313961 -314.68661462 248.51006897 -296.56640625 272.83203125 C-296.16631348 273.37053711 -295.7662207 273.90904297 -295.35400391 274.46386719 C-268.13708886 310.81445572 -230.58171349 337.8485384 -186.62890625 350.08203125 C-185.79665527 350.31615723 -184.9644043 350.5502832 -184.10693359 350.79150391 C-168.93881875 354.8149913 -154.1194416 356.32900554 -138.45336914 356.22314453 C-135.63443499 356.20706279 -132.81693806 356.22309629 -129.99804688 356.2421875 C-83.36032112 356.2950201 -35.60305859 337.88345197 -1.56640625 305.83203125 C-0.87981934 305.18782227 -0.19323242 304.54361328 0.51416016 303.87988281 C32.38986518 273.67020357 54.00386352 235.31298968 61.43359375 191.83203125 C61.60947021 190.94628418 61.78534668 190.06053711 61.96655273 189.14794922 C63.72502786 179.47907264 63.77168179 169.89037209 63.74926758 160.09619141 C63.74612228 157.23300524 63.76959161 154.37087069 63.79492188 151.5078125 C63.85478763 134.02399922 61.48772153 117.57610205 56.43359375 100.83203125 C56.07523437 99.63449219 55.716875 98.43695313 55.34765625 97.203125 C42.65276554 57.03103796 16.44332109 18.78448659 -18.56640625 -5.16796875 C-19.20900391 -5.61188965 -19.85160156 -6.05581055 -20.51367188 -6.51318359 C-34.70353875 -16.23103152 -49.61899396 -23.74496035 -65.56640625 -30.16796875 C-66.61441406 -30.59851563 -67.66242188 -31.0290625 -68.7421875 -31.47265625 C-79.66851322 -35.6861615 -91.08345974 -38.0022245 -102.56640625 -40.16796875 C-104.01128418 -40.45377808 -104.01128418 -40.45377808 -105.48535156 -40.74536133 C-114.52306425 -42.35780084 -123.44199152 -42.50690414 -132.59326172 -42.48364258 C-135.16677942 -42.48049883 -137.73912469 -42.50397128 -140.3125 -42.52929688 C-155.14762412 -42.58616562 -169.73897985 -40.8863813 -184.06640625 -36.91796875 Z " fill="#F9F9F9" transform="translate(390.56640625,100.16796875)"/>
<path d="M0 0 C39.41382362 -0.77114003 76.34009212 10.14241066 105.44897461 37.5402832 C121.22066514 52.71480029 134.75814293 69.71417725 135.4375 92.4375 C135.23529218 101.81609121 133.25384752 111.70384456 127 119 C126.34 119 125.68 119 125 119 C124.77828125 118.20722656 124.5565625 117.41445312 124.328125 116.59765625 C117.18391837 93.17190625 105.20902919 70.41025538 89 52 C88.25878906 51.14921875 87.51757812 50.2984375 86.75390625 49.421875 C84.5356403 46.91527293 82.27909366 44.45132745 80 42 C79.00806641 40.90945312 79.00806641 40.90945312 77.99609375 39.796875 C58.92601476 19.67739887 30.82817117 3.79891879 2.828125 2.30859375 C2.22484375 2.20675781 1.6215625 2.10492188 1 2 C0.67 1.34 0.34 0.68 0 0 Z " fill="#F9F9F9" transform="translate(244,121)"/>
<path d="M0 0 C24.62857143 0 24.62857143 0 32 6 C38.06831811 12.23688251 38.30957491 19.31168003 38.30078125 27.5546875 C38.30506638 28.45567169 38.3093515 29.35665588 38.31376648 30.28494263 C38.31948481 32.18262902 38.32002855 34.08033733 38.31567383 35.97802734 C38.31251705 38.8594355 38.33599331 41.73981245 38.36132812 44.62109375 C38.36360191 46.47395705 38.36430425 48.32682308 38.36328125 50.1796875 C38.372491 51.02997528 38.38170074 51.88026306 38.39118958 52.75631714 C38.33981231 59.5001541 37.25028375 65.8656762 33.25 71.4375 C23.91779852 77.91819547 9.89384326 75 0 75 C0 50.25 0 25.5 0 0 Z " fill="#FCFCFC" transform="translate(240,262)"/>
<path d="M0 0 C0.33 0.66 0.66 1.32 1 2 C-0.20398503 4.73165448 -1.46680663 7.31262757 -2.875 9.9375 C-3.28556641 10.70513672 -3.69613281 11.47277344 -4.11914062 12.26367188 C-7.73001402 18.8293974 -11.92590432 24.4784532 -17 30 C-17.63808594 30.76441406 -18.27617187 31.52882813 -18.93359375 32.31640625 C-33.99639652 49.19966471 -62.91393539 59.12897077 -85 61 C-91.12161504 61.33723218 -97.24533452 61.40882211 -103.375 61.4375 C-104.14272736 61.44394531 -104.91045471 61.45039063 -105.70144653 61.45703125 C-115.88946354 61.50932288 -125.10256895 60.60126812 -135 58 C-136.12583496 57.70472412 -137.25166992 57.40944824 -138.41162109 57.10522461 C-140.9483955 56.42661969 -143.47649118 55.72615254 -146 55 C-142.45898743 53.87783291 -139.29627023 53.97226387 -135.6015625 54.11328125 C-119.10111038 54.56437575 -104.70148177 53.65205546 -89 48 C-88.12730469 47.70029297 -87.25460937 47.40058594 -86.35546875 47.09179688 C-56.12223049 36.6673055 -25.13683384 19.79278255 0 0 Z " fill="#F7F7F7" transform="translate(358,331)"/>
<path d="M0 0 C21 0 21 0 29 3 C32.42293057 7.59581694 32.45446802 12.10544905 32.43359375 17.6171875 C32.4388356 18.43317413 32.44407745 19.24916077 32.44947815 20.08987427 C32.4558768 21.80941637 32.45458938 23.52900237 32.44604492 25.24853516 C32.43754716 27.86050552 32.46630424 30.47027717 32.49804688 33.08203125 C32.49965961 34.76041602 32.49907998 36.43880461 32.49609375 38.1171875 C32.51294472 39.27382401 32.51294472 39.27382401 32.53013611 40.4538269 C32.45985032 46.00432904 31.17799918 50.39565143 28 55 C18.69843133 62.40328935 13.9419461 60 0 60 C0 40.2 0 20.4 0 0 Z " fill="#FBFBFB" transform="translate(239,181)"/>
<path d="M0 0 C5.4852269 3.27476233 7.65152987 8.34020586 10.375 13.875 C10.83777344 14.76058594 11.30054688 15.64617187 11.77734375 16.55859375 C13.68672759 20.38306107 15 23.10804013 15 27.42578125 C13.90870877 30.23500359 12.98146603 31.46809304 10.625 33.3125 C10.01914063 33.80363281 9.41328125 34.29476562 8.7890625 34.80078125 C5.36970263 37.09279758 2.05853159 37.20096837 -1.96484375 37.42578125 C-5.08058627 36.77392725 -6.00987619 35.50002168 -8 33 C-9.75345169 29.95114568 -11.25980475 26.80926085 -12.75 23.625 C-13.16121094 22.78710938 -13.57242188 21.94921875 -13.99609375 21.0859375 C-17.87940119 12.8806766 -17.87940119 12.8806766 -17 8 C-15.609375 6.171875 -15.609375 6.171875 -13.75 4.75 C-13.14671875 4.27046875 -12.5434375 3.7909375 -11.921875 3.296875 C-7.85533096 0.55278431 -4.98789341 -0.61076246 0 0 Z " fill="#EEEEEE" transform="translate(182,87)"/>
<path d="M0 0 C4.11145451 4.14975999 6.51465128 8.54886058 8.8125 13.875 C9.12380859 14.54402344 9.43511719 15.21304687 9.75585938 15.90234375 C11.90876897 20.81381663 12.49049676 24.63875639 12 30 C8.61369387 34.45057377 5.30919758 36.50688797 -0.17578125 37.32421875 C-4.79035068 37.66408066 -4.79035068 37.66408066 -7 37 C-10.54377108 32.65667827 -12.62622977 27.71697238 -14.75 22.5625 C-15.06582031 21.83740234 -15.38164062 21.11230469 -15.70703125 20.36523438 C-17.60903714 15.78312928 -18.60241273 12.04520661 -18 7 C-15.25 4.1875 -15.25 4.1875 -12 2 C-11.38125 1.566875 -10.7625 1.13375 -10.125 0.6875 C-6.74874146 -0.40481894 -3.39393478 -1.06178965 0 0 Z " fill="#F0F0F0" transform="translate(325,394)"/>
<path d="M0 0 C2.33640253 3.50460379 2.66959493 6.48876305 3.125 10.5625 C3.2062915 11.27760742 3.28758301 11.99271484 3.37133789 12.72949219 C3.5972372 14.81841298 3.80325976 16.90815037 4 19 C4.14888672 20.55267578 4.14888672 20.55267578 4.30078125 22.13671875 C4.42686938 24.54680325 4.48423054 26.63637964 4 29 C1.13386329 32.09241066 -1.47419947 33.84430607 -5.6796875 34.2734375 C-6.73414063 34.30695313 -7.78859375 34.34046875 -8.875 34.375 C-9.92429688 34.42398438 -10.97359375 34.47296875 -12.0546875 34.5234375 C-15 34 -15 34 -17.2734375 32.0625 C-19.57160339 27.98611525 -20.14493408 24.22350098 -20.75 19.625 C-20.87503906 18.8 -21.00007812 17.975 -21.12890625 17.125 C-21.81035961 12.40724594 -22.38737159 7.76951272 -22 3 C-15.86606463 -3.41275061 -7.573972 -5.8427784 0 0 Z " fill="#F3F3F3" transform="translate(242,74)"/>
<path d="M0 0 C3.6875 0.875 3.6875 0.875 6.75 2.9375 C9.49255405 5.14618483 9.49255405 5.14618483 12.5 4.8125 C17.25201799 4.90567682 20.8558879 7.15455541 24.6875 9.875 C26.77662887 13.00869331 26.99170714 14.02576438 26.37890625 17.625 C24.83482824 22.64979625 22.1660835 27.25892247 19.6875 31.875 C13.69509809 30.94862499 8.64548416 28.18800044 3.25683594 25.52001953 C1.43697199 24.62474025 -0.39409258 23.75584147 -2.2265625 22.88671875 C-3.37382813 22.32082031 -4.52109375 21.75492188 -5.703125 21.171875 C-6.75532227 20.65979492 -7.80751953 20.14771484 -8.89160156 19.62011719 C-11.3125 17.875 -11.3125 17.875 -12.23242188 15.34545898 C-12.34190406 11.96786676 -11.23198283 10.10114504 -9.5625 7.1875 C-9.03140625 6.23488281 -8.5003125 5.28226563 -7.953125 4.30078125 C-5.59709531 0.81722307 -4.24457234 -0.16017254 0 0 Z " fill="#F0F0F0" transform="translate(97.3125,167.125)"/>
<path d="M0 0 C2.97 0.495 2.97 0.495 6 1 C5.37084248 8.67036723 4.70586682 16.33630307 4 24 C7.96 18.06 11.92 12.12 16 6 C18.97 6.495 18.97 6.495 22 7 C22.31918373 14.85546636 21.35709504 22.26940505 20 30 C20.34780518 29.49025635 20.69561035 28.9805127 21.05395508 28.45532227 C22.63211523 26.15209704 24.22210473 23.8572918 25.8125 21.5625 C26.35970703 20.76005859 26.90691406 19.95761719 27.47070312 19.13085938 C28.00244141 18.36708984 28.53417969 17.60332031 29.08203125 16.81640625 C29.81256714 15.75595093 29.81256714 15.75595093 30.55786133 14.67407227 C32 13 32 13 35 12 C35.99 12.33 36.98 12.66 38 13 C37.60698349 18.34709302 34.56385903 21.63383314 31.375 25.6875 C30.282627 27.10712948 29.19147871 28.52770221 28.1015625 29.94921875 C27.57079102 30.63806152 27.04001953 31.3269043 26.49316406 32.03662109 C23.53075128 35.93193235 20.75894918 39.95872232 18 44 C13.125 43.125 13.125 43.125 12 42 C12.06580476 40.18438688 12.20449021 38.37128624 12.375 36.5625 C12.52388672 34.94794922 12.52388672 34.94794922 12.67578125 33.30078125 C12.78277344 32.21152344 12.88976562 31.12226563 13 30 C13.09667969 29.00355469 13.19335938 28.00710938 13.29296875 26.98046875 C13.52272089 24.65297972 13.75965742 22.32641153 14 20 C12.84765625 21.72851562 11.6953125 23.45703125 10.54296875 25.18554688 C8.46289062 28.30566406 8.46289062 28.30566406 6.3828125 31.42578125 C5.77010498 32.34484253 5.77010498 32.34484253 5.14501953 33.2824707 C4.09667969 34.85498047 3.04833984 36.42749023 2 38 C0.35 37.67 -1.3 37.34 -3 37 C-4.12806672 33.53670076 -3.91390108 30.76257505 -3.4765625 27.16796875 C-3.3425 26.03939453 -3.2084375 24.91082031 -3.0703125 23.74804688 C-2.92335937 22.57306641 -2.77640625 21.39808594 -2.625 20.1875 C-2.48578125 19.02412109 -2.3465625 17.86074219 -2.203125 16.66210938 C-1.53179786 11.09832737 -0.82539116 5.54306807 0 0 Z " fill="#F2F2F2" transform="translate(182,391)"/>
<path d="M0 0 C3.51146537 2.89924595 6.79103704 5.90720429 7.2578125 10.58203125 C7 13 7 13 6 16 C13.425 18.97 13.425 18.97 21 22 C20.67 23.32 20.34 24.64 20 26 C15.39761461 27.43663245 12.79363757 26.42508953 8.4375 24.5625 C4.52367876 22.90195388 2.2954709 22 -2 22 C-0.55575365 25.23861303 1.25772247 27.61969163 3.625 30.25 C4.57246094 31.30960937 4.57246094 31.30960937 5.5390625 32.390625 C6.02117187 32.92171875 6.50328125 33.4528125 7 34 C6.1875 35.9375 6.1875 35.9375 5 38 C3.515 38.495 3.515 38.495 2 39 C-3.8435681 32.19569054 -9.6100317 25.33747823 -15.1875 18.3125 C-15.66872314 17.7129248 -16.14994629 17.11334961 -16.64575195 16.49560547 C-20 12.23637921 -20 12.23637921 -20 10 C-18.07304071 8.39420059 -16.15227545 6.905767 -14.125 5.4375 C-13.29162109 4.8197168 -13.29162109 4.8197168 -12.44140625 4.18945312 C-5.48505798 -0.93142494 -5.48505798 -0.93142494 0 0 Z " fill="#F1F1F1" transform="translate(363,370)"/>
<path d="M0 0 C4.01687939 2.38219841 6.58905363 4.69010846 8 9.1875 C8 12 8 12 7 15 C12.28 16.32 17.56 17.64 23 19 C23 19.99 23 20.98 23 22 C22.34 22.66 21.68 23.32 21 24 C14.24604958 23.57117775 7.63896986 22.27815681 1 21 C0.65662928 24.12288116 0.65662928 24.12288116 3.00390625 26.12109375 C4.70977306 27.6654892 6.41811116 29.20715936 8.12890625 30.74609375 C8.74636719 31.48988281 9.36382812 32.23367187 10 33 C9.77734375 35.28515625 9.77734375 35.28515625 9 37 C5 37 5 37 3.359375 35.71484375 C2.82828125 35.12832031 2.2971875 34.54179687 1.75 33.9375 C-0.69239056 31.34440875 -3.16119997 28.93335182 -5.875 26.625 C-10.48846074 22.65380536 -14.74242456 18.34627493 -19 14 C-17.54238919 10.63163511 -15.6759774 8.43494248 -13.0625 5.875 C-12.37285156 5.19179687 -11.68320313 4.50859375 -10.97265625 3.8046875 C-7.24533184 0.39473923 -5.02864496 -0.77363769 0 0 Z " fill="#F1F1F1" transform="translate(135,120)"/>
<path d="M0 0 C1.84216739 3.22957379 2.50290748 6.14928511 3.0625 9.8125 C3.30806641 11.41351563 3.30806641 11.41351563 3.55859375 13.046875 C3.70425781 14.02140625 3.84992188 14.9959375 4 16 C4.20625 17.175625 4.4125 18.35125 4.625 19.5625 C5.85548406 30.84193722 4.81161653 39.67023549 -2.265625 48.98046875 C-4.42670018 51.45176278 -6.54507475 53.8199878 -9 56 C-9.66 56 -10.32 56 -11 56 C-11.53365658 51.77234844 -12.04967756 47.54272524 -12.5625 43.3125 C-12.78969727 41.51522461 -12.78969727 41.51522461 -13.02148438 39.68164062 C-13.16005859 38.52470703 -13.29863281 37.36777344 -13.44140625 36.17578125 C-13.57232666 35.11270752 -13.70324707 34.04963379 -13.83813477 32.9543457 C-14.15321726 27.20349612 -12.75554008 24.31022607 -9.1875 19.875 C-5.14855758 14.53317293 -2.90680242 9.37755386 -1 3 C-0.67 2.01 -0.34 1.02 0 0 Z " fill="#F7F7F7" transform="translate(387,224)"/>
<path d="M0 0 C1.828125 0.890625 1.828125 0.890625 3.828125 3.890625 C3.47371154 7.20749567 1.95299425 9.49608084 0.10546875 12.21875 C-0.43271484 13.01796875 -0.97089844 13.8171875 -1.52539062 14.640625 C-2.37133789 15.878125 -2.37133789 15.878125 -3.234375 17.140625 C-3.80220703 17.98109375 -4.37003906 18.8215625 -4.95507812 19.6875 C-6.35554019 21.75877162 -7.7612656 23.82625666 -9.171875 25.890625 C-7.0326637 24.46448413 -4.99803552 23.02519444 -2.95703125 21.47265625 C-2.35310547 21.02341797 -1.74917969 20.57417969 -1.12695312 20.11132812 C0.13789873 19.17019481 1.39574521 18.21957481 2.64648438 17.25976562 C4.48046875 15.91015625 4.48046875 15.91015625 7.828125 13.890625 C10.03735352 14.2644043 10.03735352 14.2644043 11.828125 14.890625 C12.323125 16.870625 12.323125 16.870625 12.828125 18.890625 C10.01769499 20.93515261 7.20439504 22.97569715 4.390625 25.015625 C3.60751953 25.58539063 2.82441406 26.15515625 2.01757812 26.7421875 C-0.36984269 28.47134826 -2.76988039 30.18178434 -5.171875 31.890625 C-5.98543457 32.48584961 -6.79899414 33.08107422 -7.63720703 33.69433594 C-8.42337402 34.2515332 -9.20954102 34.80873047 -10.01953125 35.3828125 C-10.72215088 35.88925293 -11.42477051 36.39569336 -12.14868164 36.91748047 C-14.171875 37.890625 -14.171875 37.890625 -16.30639648 37.73486328 C-18.171875 36.890625 -18.171875 36.890625 -20.171875 33.890625 C-19.81504952 30.73998228 -18.50834957 28.62857731 -16.703125 26.0703125 C-16.21457031 25.37035156 -15.72601563 24.67039062 -15.22265625 23.94921875 C-14.71089844 23.22863281 -14.19914062 22.50804687 -13.671875 21.765625 C-12.66046759 20.32621647 -11.65000544 18.88614316 -10.640625 17.4453125 C-9.96676758 16.49374268 -9.96676758 16.49374268 -9.27929688 15.52294922 C-8.10966864 13.87627016 -8.10966864 13.87627016 -7.171875 11.890625 C-7.6659082 12.25937744 -8.15994141 12.62812988 -8.66894531 13.00805664 C-10.91041768 14.66970187 -13.16573318 16.31146083 -15.421875 17.953125 C-16.19917969 18.53384766 -16.97648437 19.11457031 -17.77734375 19.71289062 C-18.90849609 20.52983398 -18.90849609 20.52983398 -20.0625 21.36328125 C-20.75375977 21.87125244 -21.44501953 22.37922363 -22.15722656 22.90258789 C-24.171875 23.890625 -24.171875 23.890625 -26.42871094 23.54858398 C-27.00395508 23.33145752 -27.57919922 23.11433105 -28.171875 22.890625 C-28.501875 21.570625 -28.831875 20.250625 -29.171875 18.890625 C-28.14449219 18.189375 -27.11710937 17.488125 -26.05859375 16.765625 C-24.65879926 15.80737187 -23.25906375 14.84903257 -21.859375 13.890625 C-21.13331055 13.39530273 -20.40724609 12.89998047 -19.65917969 12.38964844 C-16.32260263 10.10284728 -13.01201085 7.80441723 -9.80078125 5.34375 C-8.37572266 4.25320313 -8.37572266 4.25320313 -6.921875 3.140625 C-6.09171875 2.48578125 -5.2615625 1.8309375 -4.40625 1.15625 C-2.171875 -0.109375 -2.171875 -0.109375 0 0 Z " fill="#F2F2F2" transform="translate(125.171875,333.109375)"/>
<path d="M0 0 C1.43790143 2.2837258 2.0239936 3.61221151 1.85546875 6.3359375 C0.72844607 9.84566109 -1.07049734 11.42843908 -3.75 13.9375 C-7.47266521 17.45396968 -10.78456183 21.02696758 -14 25 C-12.91460937 24.43410156 -11.82921875 23.86820313 -10.7109375 23.28515625 C-9.2658447 22.54384241 -7.82051983 21.80298082 -6.375 21.0625 C-5.30572266 20.50272461 -5.30572266 20.50272461 -4.21484375 19.93164062 C-0.13081898 17.85216012 3.3702221 16.46005679 8 16 C8.495 18.475 8.495 18.475 9 21 C1 25 -7 29 -15 33 C-16.04849121 33.57580811 -17.09698242 34.15161621 -18.17724609 34.74487305 C-21 36 -21 36 -24 35 C-24.66 33.02 -25.32 31.04 -26 29 C-20.72 23.39 -15.44 17.78 -10 12 C-13.09107803 12.77276951 -14.93125065 13.36636026 -17.6015625 14.84765625 C-18.25640625 15.20537109 -18.91125 15.56308594 -19.5859375 15.93164062 C-20.25882812 16.30482422 -20.93171875 16.67800781 -21.625 17.0625 C-28.73269231 21 -28.73269231 21 -31 21 C-31.66 19.35 -32.32 17.7 -33 16 C-26.75957662 11.95075731 -20.34291317 8.50413637 -13.6875 5.1875 C-12.69943359 4.68541016 -11.71136719 4.18332031 -10.69335938 3.66601562 C-9.27313477 2.95541992 -9.27313477 2.95541992 -7.82421875 2.23046875 C-6.96916748 1.80145264 -6.11411621 1.37243652 -5.2331543 0.93041992 C-3 0 -3 0 0 0 Z " fill="#F2F2F2" transform="translate(418,163)"/>
<path d="M0 0 C1.65 0 3.3 0 5 0 C6.29676812 4.61073111 5.71109139 8.33840089 5 13 C5.72445313 12.278125 6.44890625 11.55625 7.1953125 10.8125 C8.17112469 9.87421905 9.14772947 8.93676191 10.125 8 C10.599375 7.52304688 11.07375 7.04609375 11.5625 6.5546875 C14.23182842 4.0296471 15.66059195 3.03149959 19.3671875 2.6875 C20.23601562 2.790625 21.10484375 2.89375 22 3 C22 6 22 6 19.59375 8.48046875 C18.56994769 9.39125392 17.53832966 10.29331192 16.5 11.1875 C15.97535156 11.65091797 15.45070313 12.11433594 14.91015625 12.59179688 C13.61333776 13.735355 12.30750133 14.86867174 11 16 C12.61365934 22.12275 14.31189012 28.16240114 16.44921875 34.125 C17 36 17 36 17 39 C14.6875 39.3125 14.6875 39.3125 12 39 C9.46013263 35.4752861 8.12431954 31.80389923 6.8125 27.6875 C6.46832031 26.61886719 6.12414062 25.55023438 5.76953125 24.44921875 C5.51558594 23.64097656 5.26164062 22.83273438 5 22 C4.01 22 3.02 22 2 22 C1.93941406 22.59167969 1.87882812 23.18335937 1.81640625 23.79296875 C1.37987629 27.90978208 0.91328654 31.95544533 0 36 C-1.66611905 36.042721 -3.33382885 36.04063832 -5 36 C-5.33 35.67 -5.66 35.34 -6 35 C-5.8674596 27.20411963 -4.01479139 19.47427506 -2.4375 11.875 C-2.08655273 10.15410156 -2.08655273 10.15410156 -1.72851562 8.3984375 C-1.15676376 5.5980202 -0.5805121 2.79861203 0 0 Z " fill="#EFEFEF" transform="translate(280,72)"/>
<path d="M0 0 C5.01264345 3.77703386 4.90240191 11.30294327 6 17 C17.385 17.99 17.385 17.99 29 19 C29 22 29 22 27 25 C25.12060547 25.2487793 25.12060547 25.2487793 22.8671875 25.07421875 C21.65869141 24.99204102 21.65869141 24.99204102 20.42578125 24.90820312 C19.58402344 24.83537109 18.74226563 24.76253906 17.875 24.6875 C17.02550781 24.62626953 16.17601562 24.56503906 15.30078125 24.50195312 C13.19946335 24.34848609 11.09954876 24.17602278 9 24 C9 24.99 9 25.98 9 27 C9.515625 27.226875 10.03125 27.45375 10.5625 27.6875 C13.92403127 29.4975553 16.92911144 31.73996404 20 34 C19.01 35.65 18.02 37.3 17 39 C10.96488188 35.69760978 5.33351014 31.92551687 -0.3125 28 C-1.67084961 27.07574219 -1.67084961 27.07574219 -3.05664062 26.1328125 C-3.92095703 25.53210938 -4.78527344 24.93140625 -5.67578125 24.3125 C-6.45864502 23.77238281 -7.24150879 23.23226563 -8.0480957 22.67578125 C-10.09895656 20.91504217 -10.98971498 19.48227943 -12 17 C-11.01 15.515 -11.01 15.515 -10 14 C-5.32894208 15.55701931 -1.91294315 18.08447373 2 21 C1.62746094 19.96359375 1.25492187 18.9271875 0.87109375 17.859375 C0.39267273 16.48977758 -0.08516121 15.11997498 -0.5625 13.75 C-0.80935547 13.06808594 -1.05621094 12.38617188 -1.31054688 11.68359375 C-3.53297448 5.23542352 -3.53297448 5.23542352 -2 2 C-1.34 1.34 -0.68 0.68 0 0 Z " fill="#F4F4F4" transform="translate(387,333)"/>
<path d="M0 0 C3.67793249 1.56525964 6.21212508 3.85396108 9.125 6.5625 C12.31507509 9.63719186 12.31507509 9.63719186 16 12 C15.34 13.32 14.68 14.64 14 16 C10.7173068 14.50923566 8.06922559 12.61379679 5.25 10.375 C4.45078125 9.74335938 3.6515625 9.11171875 2.828125 8.4609375 C2.22484375 7.97882813 1.6215625 7.49671875 1 7 C0.566875 7.928125 0.566875 7.928125 0.125 8.875 C-1 11 -1 11 -3 13 C-3.12559409 14.93863545 -3.12559409 14.93863545 -2 17 C-0.10171925 18.8456968 1.89024592 20.38401815 4 22 C3.34 23.32 2.68 24.64 2 26 C-0.60380719 24.88408263 -2.06099536 23.93328633 -4 21.8125 C-5.79748524 19.79010189 -5.79748524 19.79010189 -8 19.9375 C-10.7697841 21.4089478 -12.19083529 23.48009201 -14 26 C-12.61811547 29.21043882 -11.07578097 31.04936365 -8.375 33.25 C-7.42753906 34.03117187 -7.42753906 34.03117187 -6.4609375 34.828125 C-5.97882813 35.21484375 -5.49671875 35.6015625 -5 36 C-5.33 37.32 -5.66 38.64 -6 40 C-10.32219959 39.5083754 -12.56404282 36.90419657 -15.625 34 C-19.02862436 30.61733497 -19.02862436 30.61733497 -23 28 C-21.29214141 23.84796054 -18.3559152 20.7122702 -15.4375 17.375 C-14.90608398 16.76124512 -14.37466797 16.14749023 -13.82714844 15.51513672 C-9.28412373 10.28398139 -4.67001156 5.11814398 0 0 Z " fill="#F1F1F1" transform="translate(151,366)"/>
<path d="M0 0 C1.9375 0.8125 1.9375 0.8125 4 2 C5.31225809 5.93677426 4.3393954 7.7794262 3.0625 11.6875 C2.68222656 12.86699219 2.30195313 14.04648438 1.91015625 15.26171875 C1.60980469 16.16535156 1.30945313 17.06898438 1 18 C1.96421875 17.67644531 2.9284375 17.35289062 3.921875 17.01953125 C5.19759783 16.61617771 6.4736578 16.21388936 7.75 15.8125 C9.00296875 15.40644531 10.2559375 15.00039062 11.546875 14.58203125 C15 14 15 14 17.453125 15.19921875 C19 17 19 17 19 20 C18.0821875 20.25394531 17.164375 20.50789063 16.21875 20.76953125 C13.67887391 21.48187045 11.14460569 22.20407127 8.61328125 22.9453125 C6.61784923 23.52776293 4.61838138 24.09836173 2.60546875 24.6171875 C-3.74497289 26.5055062 -7.6509779 31.19795476 -12 36 C-13.9375 35.1875 -13.9375 35.1875 -16 34 C-16.495 32.515 -16.495 32.515 -17 31 C-15.56770833 29.86067708 -14.13541667 28.72135417 -12.703125 27.58203125 C-8.26872935 23.46292519 -6.11168403 19.29241474 -4.375 13.5625 C-4.17132813 12.91990234 -3.96765625 12.27730469 -3.7578125 11.61523438 C-3.1655644 9.74547677 -2.58264069 7.87277365 -2 6 C-1.33806332 3.99842955 -0.67314761 1.997828 0 0 Z " fill="#EFEFEF" transform="translate(376,115)"/>
<path d="M0 0 C1.98 0 3.96 0 6 0 C5.58771609 1.29307226 5.16979706 2.58434733 4.75 3.875 C4.48058594 4.70902344 4.21117187 5.54304688 3.93359375 6.40234375 C3 9 3 9 1.91015625 11.19140625 C-2.14037339 19.47985659 -1.35288912 28.00132743 -1 37 C-2.66611905 37.042721 -4.33382885 37.04063832 -6 37 C-7 36 -7 36 -7.1484375 33.18359375 C-7.82669983 21.96887697 -12.07451166 15.24000163 -19.02197266 6.57128906 C-20 5 -20 5 -20 2 C-17.234375 1.66015625 -17.234375 1.66015625 -14 2 C-11.953125 4.37109375 -11.953125 4.37109375 -10.25 7.4375 C-8.28663006 11.39676603 -8.28663006 11.39676603 -5 14 C-4.9175 13.360625 -4.835 12.72125 -4.75 12.0625 C-3.70479628 7.79458483 -1.85908174 3.96892333 0 0 Z " fill="#F2F2F2" transform="translate(282,406)"/>
<path d="M0 0 C1.28659309 3.85977928 0.42630852 6.66801707 -0.5 10.5 C-0.6757959 11.23959961 -0.8515918 11.97919922 -1.03271484 12.74121094 C-3.71724348 23.47484005 -7.86198971 33.75740028 -12 44 C-14.31 43.34 -16.62 42.68 -19 42 C-18.87882812 41.45214844 -18.75765625 40.90429688 -18.6328125 40.33984375 C-18.46523438 39.54707031 -18.29765625 38.75429688 -18.125 37.9375 C-17.83689453 36.58011719 -17.83689453 36.58011719 -17.54296875 35.1953125 C-16.93235564 31.91993397 -16.93235564 31.91993397 -16.73828125 28.2421875 C-15.96325695 18.11654539 -15.96325695 18.11654539 -13.01171875 14.6953125 C-10.625 12.9375 -10.625 12.9375 -8.19140625 11.4140625 C-4.00078179 8.70995189 -2.05384183 4.44999064 0 0 Z " fill="#F2F2F2" transform="translate(390,274)"/>
<path d="M0 0 C4.77386929 4.77386929 4.125 14.86693642 4.125 21.3125 C4.09378971 22.87524383 4.05634612 24.43796048 4 26 C0.78548731 27.60725635 -2.43612536 27.05748185 -6 27 C-7.77927972 23.0452144 -8.53821022 19.35165387 -9.125 15.0625 C-9.29257813 13.87785156 -9.46015625 12.69320312 -9.6328125 11.47265625 C-10.29214009 5.23710065 -10.29214009 5.23710065 -10 2 C-6.32653229 -0.44897847 -4.33643601 -0.31537716 0 0 Z " fill="#0C0C0C" transform="translate(236,76)"/>
<path d="M0 0 C1.32805745 2.49275476 2.63722261 4.99279848 3.9375 7.5 C4.31068359 8.19609375 4.68386719 8.8921875 5.06835938 9.609375 C7.57539351 14.48792792 8.61148267 18.52375576 9 24 C6.80566266 25.95052208 5.34486324 26.93270961 2.4375 27.5 C0 27 0 27 -1.453125 24.90625 C-3.18258668 21.65695835 -4.7150673 18.37387048 -6.1875 15 C-6.71730469 13.80375 -7.24710937 12.6075 -7.79296875 11.375 C-8.90974716 8.25235745 -9.42161123 6.26163136 -9 3 C-6.13156014 -0.08091689 -4.0507072 -0.12763422 0 0 Z " fill="#060707" transform="translate(322,399)"/>
<path d="M0 0 C1.670625 0.061875 1.670625 0.061875 3.375 0.125 C5.08233046 3.19774846 6.76225648 6.28465788 8.4375 9.375 C8.92283203 10.24769531 9.40816406 11.12039062 9.90820312 12.01953125 C10.58979492 13.28603516 10.58979492 13.28603516 11.28515625 14.578125 C11.92142944 15.74069824 11.92142944 15.74069824 12.57055664 16.92675781 C13.51295193 19.50197092 13.39479004 20.6096749 12.375 23.125 C10.09844186 25.40155814 8.98220663 26.10703531 5.734375 26.203125 C4.56648437 26.16445312 4.56648437 26.16445312 3.375 26.125 C1.66415146 23.07499316 -0.01433996 20.00831982 -1.6875 16.9375 C-2.17283203 16.07318359 -2.65816406 15.20886719 -3.15820312 14.31835938 C-3.61259766 13.47724609 -4.06699219 12.63613281 -4.53515625 11.76953125 C-4.95933838 10.99971924 -5.38352051 10.22990723 -5.82055664 9.43676758 C-6.81892956 6.56769529 -6.55261098 4.99115309 -5.625 2.125 C-3.625 0.125 -3.625 0.125 0 0 Z " fill="#040404" transform="translate(177.625,92.875)"/>
<path d="M0 0 C1.32 0.33 2.64 0.66 4 1 C4.68530273 2.62011719 4.68530273 2.62011719 5 5 C3.82836914 7.84082031 3.82836914 7.84082031 2.03515625 11.078125 C1.72299667 11.64956238 1.4108371 12.22099976 1.08921814 12.80975342 C0.09163412 14.62967842 -0.92257026 16.43970166 -1.9375 18.25 C-2.61765374 19.48375972 -3.29670374 20.7181286 -3.97460938 21.953125 C-5.63896168 24.97492776 -7.31439618 27.99001577 -9 31 C-8.06929688 31.29648438 -7.13859375 31.59296875 -6.1796875 31.8984375 C-3.13377495 32.95365536 -0.69666122 34.25510156 2 36 C1.67 37.32 1.34 38.64 1 40 C-5.16356805 38.3341708 -10.48259656 35.12194714 -16 32 C-15.40623697 28.15303606 -14.26496553 25.27289162 -12.3828125 21.875 C-11.85816406 20.92109375 -11.33351563 19.9671875 -10.79296875 18.984375 C-10.24253906 17.99953125 -9.69210937 17.0146875 -9.125 16 C-8.58230469 15.01515625 -8.03960937 14.0303125 -7.48046875 13.015625 C-5.05723495 8.63129 -2.59489437 4.28546373 0 0 Z " fill="#F2F2F2" transform="translate(336,89)"/>
<path d="M0 0 C2.99462309 1.2834099 5.53065608 3.06563269 8.1875 4.9375 C7.1975 7.9075 6.2075 10.8775 5.1875 13.9375 C0.95320244 12.62688409 -2.88657404 10.99393741 -6.8125 8.9375 C-4.18882777 -0.14444234 -4.18882777 -0.14444234 0 0 Z " fill="#0F0F0F" transform="translate(110.8125,178.0625)"/>
<path d="M0 0 C2.68930863 0.94125802 3.95731359 1.47526558 5.5 3.875 C5.41225183 7.2971787 4.72726163 8.62019151 2.4375 11.1875 C1.798125 11.744375 1.15875 12.30125 0.5 12.875 C-2.86591866 11.43246343 -5.01047079 9.54235273 -7.5 6.875 C-4.32124789 -0.21606239 -4.32124789 -0.21606239 0 0 Z " fill="#0A0A0B" transform="translate(131.5,126.125)"/>
<path d="M0 0 C2.5 0.875 2.5 0.875 4.4375 2.625 C5.5 4.875 5.5 4.875 4.9375 7.4375 C3.39370851 10.05523339 2.09934786 11.33163721 -0.5 12.875 C-1.16 12.875 -1.82 12.875 -2.5 12.875 C-3.7890625 11.34375 -3.7890625 11.34375 -5.125 9.375 C-5.57101562 8.7253125 -6.01703125 8.075625 -6.4765625 7.40625 C-6.98316406 6.64828125 -6.98316406 6.64828125 -7.5 5.875 C-5.88854351 2.15625426 -4.44949115 -0.22247456 0 0 Z " fill="#0A0A0A" transform="translate(358.5,376.125)"/>
<path d="M0 0 C-1.62786156 8.95323857 -9.4073966 17.11548822 -15 24 C-15 19.30750459 -12.68185392 15.62100519 -10.6875 11.4375 C-10.28337891 10.56158203 -9.87925781 9.68566406 -9.46289062 8.78320312 C-9.06650391 7.94595703 -8.67011719 7.10871094 -8.26171875 6.24609375 C-7.90037842 5.47966553 -7.53903809 4.7132373 -7.16674805 3.92358398 C-5.25903598 0.7783939 -3.62797612 0 0 0 Z " fill="#EAEAEA" transform="translate(374,322)"/>
<path d="M0 0 C5.875 1.875 5.875 1.875 7 3 C6.71269945 5.33944736 6.38063221 7.6739143 6 10 C3 11 3 11 1.17578125 10.22265625 C-0.54947917 9.1484375 -2.27473958 8.07421875 -4 7 C-1.125 1.125 -1.125 1.125 0 0 Z " fill="#080808" transform="translate(95,173)"/>
<path d="M0 0 C0.33 0.66 0.66 1.32 1 2 C-0.98 4.64 -2.96 7.28 -5 10 C-5 6.26879511 -3.81968524 4.21944311 -2 1 C-1.34 0.67 -0.68 0.34 0 0 Z " fill="#D9D9D9" transform="translate(364,336)"/>
</svg>
