<?xml version="1.0" encoding="UTF-8"?>
<svg version="1.1" xmlns="http://www.w3.org/2000/svg" width="512" height="512">
<path d="M0 0 C46.8394308 -0.80269186 93.18518346 14.11215716 129.375 44.12109375 C129.96829102 44.61287109 130.56158203 45.10464844 131.17285156 45.61132812 C141.69190592 54.38546347 150.83890829 63.3636623 159.375 74.12109375 C160.60283203 75.64089844 160.60283203 75.64089844 161.85546875 77.19140625 C187.27675454 109.04083617 202.24995918 150.42396489 203.375 191.12109375 C203.41496094 192.31734375 203.45492188 193.51359375 203.49609375 194.74609375 C204.29878561 241.58552455 189.38393659 287.93127721 159.375 324.12109375 C158.63733398 325.01103027 158.63733398 325.01103027 157.88476562 325.91894531 C149.11063028 336.43799967 140.13243145 345.58500204 129.375 354.12109375 C128.36179687 354.93964844 127.34859375 355.75820313 126.3046875 356.6015625 C94.45525758 382.02284829 53.07212886 396.99605293 12.375 398.12109375 C11.17875 398.16105469 9.9825 398.20101563 8.75 398.2421875 C-38.0894308 399.04487936 -84.43518346 384.13003034 -120.625 354.12109375 C-121.21829102 353.62931641 -121.81158203 353.13753906 -122.42285156 352.63085938 C-132.94190592 343.85672403 -142.08890829 334.8785252 -150.625 324.12109375 C-151.44355469 323.10789062 -152.26210937 322.0946875 -153.10546875 321.05078125 C-178.52675454 289.20135133 -193.49995918 247.81822261 -194.625 207.12109375 C-194.66496094 205.92484375 -194.70492187 204.72859375 -194.74609375 203.49609375 C-195.54878561 156.65666295 -180.63393659 110.31091029 -150.625 74.12109375 C-149.88733398 73.23115723 -149.88733398 73.23115723 -149.13476562 72.32324219 C-140.36063028 61.80418783 -131.38243145 52.65718546 -120.625 44.12109375 C-119.61179687 43.30253906 -118.59859375 42.48398438 -117.5546875 41.640625 C-84.24454561 15.05344153 -42.31338957 1.41348607 0 0 Z " fill="#0B2341" transform="translate(251.625,56.87890625)"/>
<path d="M0 0 C0.64839844 0.18191895 1.29679688 0.36383789 1.96484375 0.55126953 C36.61703629 10.30373519 65.77379427 34.76822442 83.6875 65.625 C91.14355279 78.99710624 96.69338492 93.84496704 99 109 C99.27263672 110.69576172 99.27263672 110.69576172 99.55078125 112.42578125 C104.1671979 150.92642162 94.92494097 186.8083977 71.8515625 217.89453125 C54.44884707 239.85210902 32.42965913 254.95596382 6 264 C5.21753906 264.30550781 4.43507813 264.61101562 3.62890625 264.92578125 C-25.26251766 275.90790145 -63.20267533 272.09677451 -91.11816406 260.08886719 C-123.74191468 245.31845259 -151.33271021 219.54394754 -164.55249023 185.8449707 C-165.77117649 182.5858756 -166.89616127 179.2994335 -168 176 C-168.39058594 174.87722656 -168.78117187 173.75445312 -169.18359375 172.59765625 C-173.45144846 159.70029312 -174.38788541 146.76656426 -174.3125 133.25 C-174.31034485 132.55034119 -174.3081897 131.85068237 -174.30596924 131.12982178 C-174.1181906 93.03680937 -158.85316999 59.37175515 -131.85522461 32.48657227 C-98.14366232 0.06776825 -45.0267832 -13.67205468 0 0 Z " fill="#FAFBFC" transform="translate(293,123)"/>
<path d="M0 0 C2.60110835 1.0674158 5.20843348 2.11735062 7.82055664 3.1574707 C7.82055664 3.8174707 7.82055664 4.4774707 7.82055664 5.1574707 C6.29990871 5.61641877 4.77902716 6.07459284 3.25805664 6.5324707 C2.41114258 6.78770508 1.56422852 7.04293945 0.69165039 7.3059082 C-2.59187358 8.27979695 -5.88631312 9.21657635 -9.17944336 10.1574707 C13.59055664 10.4874707 36.36055664 10.8174707 59.82055664 11.1574707 C59.82055664 12.8074707 59.82055664 14.4574707 59.82055664 16.1574707 C58.72179199 16.32875488 57.62302734 16.50003906 56.4909668 16.67651367 C52.37181393 17.31922201 48.25310694 17.96475039 44.13452148 18.61108398 C42.35990029 18.88918424 40.5851628 19.16654356 38.81030273 19.44311523 C37.95130371 19.5770166 37.09230469 19.71091797 36.20727539 19.84887695 C35.35976715 19.98092026 34.51225891 20.11296356 33.6390686 20.24900818 C31.15088155 20.64312248 28.66628587 21.0558889 26.18139648 21.47021484 C23.64035709 21.88954025 21.17453946 22.21352032 18.60424805 22.43652344 C14.70933317 22.84665024 12.63894359 23.27965253 9.91772461 26.19848633 C8.06598431 28.87915901 6.49005581 31.60188954 4.94555664 34.4699707 C3.8673129 36.36331537 2.78665431 38.25528723 1.70336914 40.14575195 C0.95144287 41.46990112 0.95144287 41.46990112 0.18432617 42.82080078 C-4.70825232 51.20369888 -11.928235 54.40113919 -21.11303711 56.98168945 C-24.91885424 57.7790449 -28.27333165 58.1574707 -32.17944336 58.1574707 C-30.77494412 54.14668423 -28.88111655 51.15196642 -26.30444336 47.7824707 C-25.50651367 46.73704102 -24.70858398 45.69161133 -23.88647461 44.61450195 C-20.46201227 40.21271257 -16.94437137 35.88549426 -13.4387207 31.54833984 C-9.73099819 26.92962161 -6.29537717 22.20036358 -3.17944336 17.1574707 C-4.49944336 17.1574707 -5.81944336 17.1574707 -7.17944336 17.1574707 C-8.89068993 18.7897022 -8.89068993 18.7897022 -10.36694336 21.0324707 C-12.95042969 24.55240197 -15.61837094 27.86170421 -18.55444336 31.0949707 C-19.69139648 32.34793945 -19.69139648 32.34793945 -20.85131836 33.6262207 C-22.39305093 35.30246685 -23.94505548 36.96932785 -25.50756836 38.6262207 C-35.33897015 48.69768468 -35.33897015 48.69768468 -39.86694336 61.5324707 C-39.06588927 65.75621046 -38.45107195 67.36461703 -35.17944336 70.1574707 C-28.87255616 73.28474465 -22.11369666 73.78159529 -15.17944336 74.1574707 C-15.44482422 76.04174805 -15.44482422 76.04174805 -16.17944336 78.1574707 C-17.81835938 79.22241211 -17.81835938 79.22241211 -19.93334961 80.0090332 C-20.70614258 80.30293945 -21.47893555 80.5968457 -22.27514648 80.8996582 C-23.08918945 81.19098633 -23.90323242 81.48231445 -24.74194336 81.7824707 C-25.52891602 82.0815332 -26.31588867 82.3805957 -27.12670898 82.6887207 C-32.08404946 84.53597371 -37.02649616 85.96515073 -42.17944336 87.1574707 C-44.00074259 77.41919154 -45.00298009 67.65233031 -45.90600586 57.7980957 C-46.04257676 56.3408649 -46.17953939 54.88367076 -46.31689453 53.42651367 C-46.81746587 48.08727325 -47.31052124 42.74733033 -47.80444336 37.4074707 C-49.47506836 19.4637207 -49.47506836 19.4637207 -51.17944336 1.1574707 C-51.50944336 41.4174707 -51.83944336 81.6774707 -52.17944336 123.1574707 C-79.96788714 123.1574707 -104.04901393 115.72335229 -125.17944336 97.1574707 C-125.98510742 96.49489258 -126.79077148 95.83231445 -127.62084961 95.1496582 C-148.36168527 77.55727491 -158.94808739 53.31425055 -164.17944336 27.1574707 C-164.17944336 21.8774707 -164.17944336 16.5974707 -164.17944336 11.1574707 C-141.73944336 10.8274707 -119.29944336 10.4974707 -96.17944336 10.1574707 C-101.45944336 8.5074707 -106.73944336 6.8574707 -112.17944336 5.1574707 C-112.17944336 4.4974707 -112.17944336 3.8374707 -112.17944336 3.1574707 C-98.68795753 -2.69468914 -85.39536653 -8.06186216 -71.17944336 -11.8425293 C-70.20362305 -12.15963867 -69.22780273 -12.47674805 -68.22241211 -12.8034668 C-44.94282232 -20.23384831 -21.27129873 -8.73207403 0 0 Z " fill="#0C2442" transform="translate(308.179443359375,244.842529296875)"/>
<path d="M0 0 C46.8394308 -0.80269186 93.18518346 14.11215716 129.375 44.12109375 C129.96829102 44.61287109 130.56158203 45.10464844 131.17285156 45.61132812 C141.69190592 54.38546347 150.83890829 63.3636623 159.375 74.12109375 C160.60283203 75.64089844 160.60283203 75.64089844 161.85546875 77.19140625 C187.27675454 109.04083617 202.24995918 150.42396489 203.375 191.12109375 C203.41496094 192.31734375 203.45492188 193.51359375 203.49609375 194.74609375 C204.29878561 241.58552455 189.38393659 287.93127721 159.375 324.12109375 C158.63733398 325.01103027 158.63733398 325.01103027 157.88476562 325.91894531 C149.11063028 336.43799967 140.13243145 345.58500204 129.375 354.12109375 C128.36179687 354.93964844 127.34859375 355.75820313 126.3046875 356.6015625 C94.45525758 382.02284829 53.07212886 396.99605293 12.375 398.12109375 C11.17875 398.16105469 9.9825 398.20101563 8.75 398.2421875 C-38.0894308 399.04487936 -84.43518346 384.13003034 -120.625 354.12109375 C-121.21829102 353.62931641 -121.81158203 353.13753906 -122.42285156 352.63085938 C-132.94190592 343.85672403 -142.08890829 334.8785252 -150.625 324.12109375 C-151.44355469 323.10789062 -152.26210937 322.0946875 -153.10546875 321.05078125 C-178.52675454 289.20135133 -193.49995918 247.81822261 -194.625 207.12109375 C-194.66496094 205.92484375 -194.70492187 204.72859375 -194.74609375 203.49609375 C-195.54878561 156.65666295 -180.63393659 110.31091029 -150.625 74.12109375 C-149.88733398 73.23115723 -149.88733398 73.23115723 -149.13476562 72.32324219 C-140.36063028 61.80418783 -131.38243145 52.65718546 -120.625 44.12109375 C-119.61179687 43.30253906 -118.59859375 42.48398438 -117.5546875 41.640625 C-84.24454561 15.05344153 -42.31338957 1.41348607 0 0 Z M-73.625 27.12109375 C-74.28129395 27.41709473 -74.93758789 27.7130957 -75.61376953 28.01806641 C-91.28846959 35.15906316 -105.6841298 44.76945322 -118.625 56.12109375 C-119.48480469 56.87132812 -120.34460938 57.6215625 -121.23046875 58.39453125 C-123.72533692 60.60632058 -126.18299409 62.8511755 -128.625 65.12109375 C-129.29015625 65.73210937 -129.9553125 66.343125 -130.640625 66.97265625 C-146.30721385 81.93870657 -158.75937458 101.46421169 -167.625 121.12109375 C-167.92744629 121.77867676 -168.22989258 122.43625977 -168.54150391 123.11376953 C-189.14595148 168.37761996 -188.33109894 219.85874265 -172.22265625 266.23046875 C-155.15995758 311.53317013 -119.73761756 350.12241233 -75.61376953 370.22412109 C-74.95747559 370.52012207 -74.30118164 370.81612305 -73.625 371.12109375 C-72.96741699 371.42354004 -72.30983398 371.72598633 -71.63232422 372.03759766 C-26.36847379 392.64204523 25.1126489 391.82719269 71.484375 375.71875 C105.26786306 362.99461967 135.07511584 340.19425667 156.375 311.12109375 C156.79104492 310.55471191 157.20708984 309.98833008 157.63574219 309.40478516 C170.94132148 291.018606 180.07007516 270.85735591 186.375 249.12109375 C186.64530029 248.19369385 186.91560059 247.26629395 187.1940918 246.31079102 C198.66517565 205.73852069 193.87652272 159.17315247 176.375 121.12109375 C176.07899902 120.4647998 175.78299805 119.80850586 175.47802734 119.13232422 C168.33703059 103.45762416 158.72664053 89.06196395 147.375 76.12109375 C146.62476563 75.26128906 145.87453125 74.40148437 145.1015625 73.515625 C142.88977317 71.02075683 140.64491825 68.56309966 138.375 66.12109375 C137.76398438 65.4559375 137.15296875 64.79078125 136.5234375 64.10546875 C114.56271633 41.11679893 84.51880285 25.86475032 54.375 17.12109375 C52.98390015 16.71564331 52.98390015 16.71564331 51.56469727 16.30200195 C10.99242694 4.8309181 -35.57294128 9.61957103 -73.625 27.12109375 Z " fill="#CB0E2D" transform="translate(251.625,56.87890625)"/>
<path d="M0 0 C0.33 18.15 0.66 36.3 1 55 C1.33 54.67 1.66 54.34 2 54 C4.21855264 53.91216458 6.43988496 53.89305391 8.66015625 53.90234375 C9.65685585 53.90446617 9.65685585 53.90446617 10.6736908 53.90663147 C12.80333899 53.91224482 14.93288339 53.92479946 17.0625 53.9375 C18.50325369 53.94251329 19.94400903 53.94707649 21.38476562 53.95117188 C24.92321102 53.96221855 28.46159539 53.97949208 32 54 C32.17378174 54.54342041 32.34756348 55.08684082 32.52661133 55.64672852 C34.36976342 61.18992317 34.36976342 61.18992317 38.6875 64.9375 C39.780625 65.618125 40.87375 66.29875 42 67 C42 67.33 42 67.66 42 68 C14.28 68 -13.44 68 -42 68 C-39 65 -39 65 -36.4375 63.25 C-33.26030981 60.70860444 -33.26030981 60.70860444 -32 54 C-22.1 54 -12.2 54 -2 54 C-2.495 51.03 -2.495 51.03 -3 48 C-9.93 48 -16.86 48 -24 48 C-22.68 46.02 -21.36 44.04 -20 42 C-19.67 40.35 -19.34 38.7 -19 37 C-15.04 37 -11.08 37 -7 37 C-7.99 33.04 -8.98 29.08 -10 25 C-29.47035898 26.18002176 -45.71247174 34.0071345 -60 47 C-60.69351563 47.60070312 -61.38703125 48.20140625 -62.1015625 48.8203125 C-77.26062059 62.77147751 -86.33714442 83.7131619 -88 104 C-96.04030671 105.77967263 -103.71017896 107.43630637 -112 107 C-112.65197233 80.92110689 -101.56581349 57.5808593 -85 38 C-84.48308594 37.33742187 -83.96617187 36.67484375 -83.43359375 35.9921875 C-69.21426127 18.38729967 -46.64338396 6.72211477 -24.9375 1.5625 C-24.27919189 1.3984668 -23.62088379 1.23443359 -22.94262695 1.06542969 C-15.13288528 -0.60548309 -8.36066853 0 0 0 Z " fill="#0C2441" transform="translate(256,144)"/>
<path d="M0 0 C0.64839844 0.18191895 1.29679688 0.36383789 1.96484375 0.55126953 C36.61703629 10.30373519 65.77379427 34.76822442 83.6875 65.625 C91.14355279 78.99710624 96.69338492 93.84496704 99 109 C99.27263672 110.69576172 99.27263672 110.69576172 99.55078125 112.42578125 C104.1671979 150.92642162 94.92494097 186.8083977 71.8515625 217.89453125 C54.44884707 239.85210902 32.42965913 254.95596382 6 264 C5.21753906 264.30550781 4.43507813 264.61101562 3.62890625 264.92578125 C-25.26251766 275.90790145 -63.20267533 272.09677451 -91.11816406 260.08886719 C-123.74191468 245.31845259 -151.33271021 219.54394754 -164.55249023 185.8449707 C-165.77117649 182.5858756 -166.89616127 179.2994335 -168 176 C-168.39058594 174.87722656 -168.78117187 173.75445312 -169.18359375 172.59765625 C-173.45144846 159.70029312 -174.38788541 146.76656426 -174.3125 133.25 C-174.31034485 132.55034119 -174.3081897 131.85068237 -174.30596924 131.12982178 C-174.1181906 93.03680937 -158.85316999 59.37175515 -131.85522461 32.48657227 C-98.14366232 0.06776825 -45.0267832 -13.67205468 0 0 Z M-101 17 C-101.58362305 17.32758301 -102.16724609 17.65516602 -102.76855469 17.99267578 C-133.58266036 35.51219705 -155.74877497 64.63716193 -165.25 98.625 C-168.24873221 109.9097028 -169.36660079 121.15337522 -169.3125 132.8125 C-169.30903564 134.03573975 -169.30557129 135.25897949 -169.30200195 136.51928711 C-169.19182589 145.70407546 -168.31294321 154.1106238 -166 163 C-165.65775391 164.45792969 -165.65775391 164.45792969 -165.30859375 165.9453125 C-159.50783172 189.21465506 -147.4861474 208.91216839 -131 226 C-130.27167969 226.79148437 -129.54335937 227.58296875 -128.79296875 228.3984375 C-107.51821644 250.8967841 -75.08016994 264.36132471 -44.453125 265.22265625 C-31.61659049 265.44384122 -19.46178242 265.24245418 -7 262 C-6.02804687 261.77183594 -5.05609375 261.54367187 -4.0546875 261.30859375 C19.21465506 255.50783172 38.91216839 243.4861474 56 227 C56.79148437 226.27167969 57.58296875 225.54335938 58.3984375 224.79296875 C67.92144968 215.78787478 75.21851776 204.71163116 81 193 C81.51304687 191.97261719 82.02609375 190.94523438 82.5546875 189.88671875 C95.30154906 163.4100287 99.36452909 131.59732724 92 103 C91.59974609 101.18822266 91.59974609 101.18822266 91.19140625 99.33984375 C83.55074874 67.04533135 61.79319425 38.74033676 34 21 C30.40699791 18.82657639 26.76474308 16.85847684 23 15 C21.97261719 14.48695313 20.94523438 13.97390625 19.88671875 13.4453125 C-18.28196834 -4.9305105 -64.17330217 -3.84997281 -101 17 Z " fill="#3C8CDB" transform="translate(293,123)"/>
<path d="M0 0 C1.65625 1.984375 1.65625 1.984375 3.5 4.75 C6.53491556 9.0911521 9.75128199 13.08157393 13.375 16.9375 C17.19489032 21.01680675 20.91281549 25.15114111 24.5 29.4375 C25.2940625 30.38496094 26.088125 31.33242188 26.90625 32.30859375 C30.96811692 37.52991149 32.71145745 40.99006537 32.46484375 47.62890625 C32 50 32 50 29.625 52.9375 C22.72029537 57.5189746 15.08026464 58.39098055 7 58 C7.66413044 61.16742718 7.66413044 61.16742718 10.28491211 62.15087891 C11.27241455 62.50585449 12.25991699 62.86083008 13.27734375 63.2265625 C14.34791016 63.6184375 15.41847656 64.0103125 16.52148438 64.4140625 C18.21241211 65.01347656 18.21241211 65.01347656 19.9375 65.625 C22.15515818 66.42910784 24.37261633 67.23376764 26.58984375 68.0390625 C27.57847412 68.39178223 28.56710449 68.74450195 29.58569336 69.10791016 C32 70 32 70 34 71 C35.5183512 74.795878 35.06687163 78.9877022 35 83 C29.40416977 83.2047255 24.72047433 82.70142598 19.375 80.9375 C18.34294434 80.60250488 18.34294434 80.60250488 17.29003906 80.26074219 C-5.65254557 72.51485348 -25.02900805 56.82656729 -35.97021484 35.07080078 C-40.61190124 25.05264365 -44.29762336 14.12780667 -44 3 C-40.43299097 3.36042636 -36.87318623 3.76951612 -33.3125 4.1875 C-32.30509766 4.28869141 -31.29769531 4.38988281 -30.25976562 4.49414062 C-25.87561426 5.02949904 -22.80948391 5.42307501 -19.171875 8.015625 C-16.21492316 12.07877464 -13.53956332 16.26500423 -10.9375 20.5625 C-5.3604651 29.74615672 -0.95632423 35.77951982 9.88085938 38.46630859 C14.23275736 39.42934822 18.60922144 40.23638634 23 41 C19.82433968 34.85219062 16.276697 29.52580846 11.8125 24.25 C10.66801745 22.86822468 9.52480601 21.48539564 8.3828125 20.1015625 C7.81723633 19.41868164 7.25166016 18.73580078 6.66894531 18.03222656 C4.12522806 14.93481544 1.64433433 11.79156647 -0.8125 8.625 C-2.02873047 7.06652344 -2.02873047 7.06652344 -3.26953125 5.4765625 C-5 3 -5 3 -5 1 C-3 0 -3 0 0 0 Z " fill="#F9FAFA" transform="translate(212,261)"/>
<path d="M0 0 C10.56 0 21.12 0 32 0 C33.12791212 5.63956059 32.06087861 7.83919822 29.5 12.625 C29.13124756 13.33358154 28.76249512 14.04216309 28.38256836 14.7722168 C12.59508892 44.68872724 -11.13688991 64.12612547 -43.203125 74.22265625 C-51.52564336 76.53575842 -59.37524567 77.30028158 -68 77 C-67.68860949 74.31236733 -67.37591843 71.62489631 -67.0625 68.9375 C-66.97548828 68.18533203 -66.88847656 67.43316406 -66.79882812 66.65820312 C-66.26536361 62.09411781 -65.67013702 57.54606466 -65 53 C-64.39341553 52.96479248 -63.78683105 52.92958496 -63.16186523 52.89331055 C-56.7200196 52.40121222 -51.11617364 51.02643853 -45.0625 48.8125 C-43.75273193 48.34058228 -43.75273193 48.34058228 -42.41650391 47.85913086 C-25.1436277 41.48266521 -8.85542085 29.95618096 1.1484375 14.16796875 C2.66323158 10.31149759 1.41544103 7.7959555 0 4 C0 2.68 0 1.36 0 0 Z " fill="#0C2441" transform="translate(329,291)"/>
<path d="M0 0 C24.64895678 -0.89033021 48.09505622 9.76281224 67 25 C67.886875 25.70511719 68.77375 26.41023438 69.6875 27.13671875 C81.84234466 37.41136088 95.79972463 54.4700345 100 70 C100 72.31 100 74.62 100 77 C89.11 77 78.22 77 67 77 C67.99 73.04 68.98 69.08 70 65 C69.13081802 61.73679517 69.13081802 61.73679517 66.875 59.4375 C66.111875 58.54160156 65.34875 57.64570313 64.5625 56.72265625 C63.2940625 55.37494141 63.2940625 55.37494141 62 54 C61.175 53.07058594 60.35 52.14117187 59.5 51.18359375 C44.39565067 35.02283904 24.68337687 26.80872757 3 24 C2.49387936 21.1259578 1.99493459 18.25097127 1.5 15.375 C1.35691406 14.56675781 1.21382813 13.75851563 1.06640625 12.92578125 C0.32123749 8.56122136 -0.17272306 4.44761871 0 0 Z " fill="#0C2441" transform="translate(261,144)"/>
<path d="M0 0 C29.7 0 59.4 0 90 0 C90.99 3.3 91.98 6.6 93 10 C94.35519487 12.75028568 94.35519487 12.75028568 95.9375 14.875 C96.45441406 15.60589844 96.97132813 16.33679688 97.50390625 17.08984375 C99.18265072 19.23320157 101.03915759 21.11457461 103 23 C103 23.66 103 24.32 103 25 C96.93242907 23.3372522 91.0581464 21.30864209 85.1875 19.0625 C52.53111273 6.64909688 27.29038881 7.92104383 -4.47460938 22.10498047 C-6.03387798 22.81212683 -7.59051094 23.52513491 -9.14355469 24.24584961 C-11 25 -11 25 -13 25 C-11.69886735 22.14370404 -10.28411995 20.07789787 -8.125 17.8125 C-3.47525708 12.52611746 -1.36863477 6.84317385 0 0 Z " fill="#122946" transform="translate(211,217)"/>
<path d="M0 0 C3.78171013 2.03630545 7.09528802 4.08475871 9 8 C9.73092146 12.71940644 9.4615237 16.0769526 7.3125 20.375 C3.74334225 24.42647637 1.51095538 25.78066777 -3.875 26.5625 C-8.25412802 26.42123781 -10.55166064 24.43191913 -13.65234375 21.5078125 C-16.48164723 18.34227295 -16.33372156 15.39997666 -16.28125 11.3203125 C-15.71893157 6.68118541 -13.19872011 3.97193522 -9.6875 1.125 C-6.16108808 -0.35117243 -3.79611 -0.46618895 0 0 Z " fill="#F4F5F7" transform="translate(127,148)"/>
<path d="M0 0 C2.5 2.0625 2.5 2.0625 4 5 C3.75 8.8125 3.75 8.8125 3 12 C5.64 12.99 8.28 13.98 11 15 C10.4375 16.9375 10.4375 16.9375 9 19 C3.26241031 20.68752638 0.089846 19.5968602 -5 17 C-3.02 19.97 -3.02 19.97 -1 23 C-1.75 24.9375 -1.75 24.9375 -3 27 C-5.078125 27.62890625 -5.078125 27.62890625 -7 28 C-7.75925781 26.95199219 -8.51851563 25.90398437 -9.30078125 24.82421875 C-10.30454854 23.44521135 -11.30846248 22.06631067 -12.3125 20.6875 C-13.06176758 19.65206055 -13.06176758 19.65206055 -13.82617188 18.59570312 C-14.31279297 17.92861328 -14.79941406 17.26152344 -15.30078125 16.57421875 C-15.74591064 15.96151123 -16.19104004 15.34880371 -16.6496582 14.7175293 C-17.99426851 13.00729001 -19.4310887 11.50446308 -21 10 C-18.82649201 8.31183845 -16.63918197 6.65070381 -14.4375 5 C-13.52387695 4.28457031 -13.52387695 4.28457031 -12.59179688 3.5546875 C-8.32657429 0.39526336 -5.48325749 -0.75839424 0 0 Z " fill="#F4F5F6" transform="translate(353,377)"/>
<path d="M0 0 C3.27053517 -0.11608726 6.5405418 -0.18720711 9.8125 -0.25 C10.74126953 -0.28351563 11.67003906 -0.31703125 12.62695312 -0.3515625 C13.9659668 -0.37089844 13.9659668 -0.37089844 15.33203125 -0.390625 C16.56530151 -0.4220459 16.56530151 -0.4220459 17.82348633 -0.45410156 C20 0 20 0 21.76245117 1.89941406 C23.73514202 5.24781258 23.8022432 8.23562806 23 12 C21 14.5 21 14.5 18 16 C15.23847356 16.30626911 12.79465924 16.18946842 10 16 C10 18.64 10 21.28 10 24 C7.69 24 5.38 24 3 24 C2.91697632 23.12263184 2.91697632 23.12263184 2.83227539 22.22753906 C2.57882735 19.56804892 2.32071175 16.90903168 2.0625 14.25 C1.97548828 13.32960938 1.88847656 12.40921875 1.79882812 11.4609375 C1.71181641 10.57148438 1.62480469 9.68203125 1.53515625 8.765625 C1.456604 7.94868164 1.37805176 7.13173828 1.29711914 6.29003906 C1.01670988 4.12879099 0.57555495 2.09982687 0 0 Z " fill="#F6F7F8" transform="translate(258,407)"/>
<path d="M0 0 C2.39817079 0.2564082 4.79243728 0.5295484 7.1875 0.8125 C7.86103516 0.88275391 8.53457031 0.95300781 9.22851562 1.02539062 C13.87188447 1.59165512 17.62267244 2.62267244 21 6 C21.44817927 12.83473389 21.44817927 12.83473389 20.0625 16.4375 C16.76846076 18.93298427 13.05778103 19.03516275 9 19 C6.71484375 18.51171875 6.71484375 18.51171875 5 18 C4.67 19.98 4.34 21.96 4 24 C2.02 24 0.04 24 -2 24 C-1.46581567 16.64644119 -0.8405348 9.3246604 0 2 C0 1.34 0 0.68 0 0 Z " fill="#F5F6F7" transform="translate(218,403)"/>
<path d="M0 0 C5.4611399 -1.05699482 5.4611399 -1.05699482 9 0 C12.85483599 3.64689878 15.92608321 7.68753218 19 12 C19.33 8.04 19.66 4.08 20 0 C21.65 0 23.3 0 25 0 C25 7.92 25 15.84 25 24 C19 24 19 24 16.8046875 22.20703125 C16.16789062 21.41683594 15.53109375 20.62664062 14.875 19.8125 C14.23304688 19.03519531 13.59109375 18.25789063 12.9296875 17.45703125 C12.29289063 16.64621094 11.65609375 15.83539063 11 15 C9.68 13.35 8.36 11.7 7 10 C6.67 14.62 6.34 19.24 6 24 C4.68 24 3.36 24 2 24 C1.97494385 23.37955811 1.9498877 22.75911621 1.92407227 22.11987305 C1.80803279 19.30887603 1.68534241 16.49820759 1.5625 13.6875 C1.52318359 12.71103516 1.48386719 11.73457031 1.44335938 10.72851562 C1.40146484 9.79072266 1.35957031 8.85292969 1.31640625 7.88671875 C1.27974854 7.02264404 1.24309082 6.15856934 1.20532227 5.26831055 C1.07252646 2.8352174 1.07252646 2.8352174 0 0 Z " fill="#F2F3F5" transform="translate(243,81)"/>
<path d="M0 0 C2.63777383 2.28524602 4.65730838 4.96936607 6.75 7.75 C7.61431641 8.84441406 7.61431641 8.84441406 8.49609375 9.9609375 C11.0243258 13.20226064 13.25038088 16.26623392 15 20 C8.9453125 20.9765625 8.9453125 20.9765625 7 21 C6.34 20.34 5.68 19.68 5 19 C2.32186601 18.97792512 2.32186601 18.97792512 -0.625 19.375 C-1.62789062 19.48585938 -2.63078125 19.59671875 -3.6640625 19.7109375 C-4.43492187 19.80632812 -5.20578125 19.90171875 -6 20 C-6.33 21.98 -6.66 23.96 -7 26 C-8.32 26.33 -9.64 26.66 -11 27 C-10.9278125 26.36835937 -10.855625 25.73671875 -10.78125 25.0859375 C-9.98119686 17.37431421 -9.89819886 9.74819817 -10 2 C-6.54851589 -0.12399022 -4.00801666 -0.77001305 0 0 Z " fill="#F2F3F4" transform="translate(214,87)"/>
<path d="M0 0 C1.9375 1.75 1.9375 1.75 2.25 4.4375 C2.146875 5.200625 2.04375 5.96375 1.9375 6.75 C1.2775 6.255 0.6175 5.76 -0.0625 5.25 C-4.02883241 3.26683379 -6.66553262 3.52642539 -11.0625 3.75 C-13.31078052 8.24656104 -13.22932272 11.82872966 -13.0625 16.75 C-10.5875 17.74 -10.5875 17.74 -8.0625 18.75 C-7.0725 16.77 -6.0825 14.79 -5.0625 12.75 C-6.3825 12.42 -7.7025 12.09 -9.0625 11.75 C-8.7325 10.76 -8.4025 9.77 -8.0625 8.75 C-4.59308454 9.20822468 -1.38854951 9.64131683 1.9375 10.75 C0.82517123 20.28424658 0.82517123 20.28424658 -0.0625 22.75 C-3.92787991 24.68268995 -8.2453226 24.34389101 -12.26171875 23.03125 C-15.44495657 21.57202083 -17.68914831 20.15835341 -20.0625 17.5625 C-21.50434515 13.50731052 -21.97400257 9.98921036 -21.0625 5.75 C-15.96647207 -2.87158185 -8.89495857 -3.63059533 0 0 Z " fill="#F1F2F4" transform="translate(307.0625,88.25)"/>
<path d="M0 0 C0.33 0.99 0.66 1.98 1 3 C-0.11375 3.4125 -1.2275 3.825 -2.375 4.25 C-4.99320695 5.35546516 -5.83493089 5.74880787 -7.4375 8.1875 C-7.623125 8.785625 -7.80875 9.38375 -8 10 C-5.4516326 9.5752721 -3.34028275 9.18660667 -1.0625 7.9375 C1.79175187 6.64011279 3.89821911 6.67689782 7 7 C9.375 8.0625 9.375 8.0625 11 10 C11.62507403 14.14111547 11.28354898 16.42156008 9.4375 20.1875 C6.44251433 23.6432527 4.17360068 25.13678541 0 27 C-2.375 26.9375 -2.375 26.9375 -4 26 C-4.33 25.01 -4.66 24.02 -5 23 C-4.36191406 22.75765625 -3.72382813 22.5153125 -3.06640625 22.265625 C-1.82697266 21.76289063 -1.82697266 21.76289063 -0.5625 21.25 C0.67306641 20.76273438 0.67306641 20.76273438 1.93359375 20.265625 C4.1849879 19.18068448 4.1849879 19.18068448 4.78515625 16.859375 C4.85605469 16.24578125 4.92695313 15.6321875 5 15 C0.87026372 15.56739868 0.87026372 15.56739868 -3 17 C-10.26788686 17.57681642 -10.26788686 17.57681642 -13.0625 15.375 C-14.35405863 12.10305148 -14.02592643 10.35135966 -13 7 C-9.29046654 1.55935093 -6.60664981 -0.29362888 0 0 Z " fill="#F1F2F4" transform="translate(152,119)"/>
<path d="M0 0 C2.125 0.9375 2.125 0.9375 4 2 C2.8553125 2.804375 2.8553125 2.804375 1.6875 3.625 C-1.22864474 6.20205814 -2.4705622 8.45814404 -4 12 C-2.906875 11.54625 -1.81375 11.0925 -0.6875 10.625 C-0.07261719 10.36976563 0.54226563 10.11453125 1.17578125 9.8515625 C3.26533932 8.93193308 3.26533932 8.93193308 6 7 C11.96764986 6.46717412 11.96764986 6.46717412 14.9375 8 C16.72215891 11.35935794 16.90303268 14.38786927 16 18 C13.50950774 22.0461779 10.96969645 25.48017997 6.26171875 26.72265625 C5.51535156 26.81417969 4.76898438 26.90570313 4 27 C3.34 26.01 2.68 25.02 2 24 C3.134375 23.46375 4.26875 22.9275 5.4375 22.375 C8.54629332 20.63257149 8.89118154 20.37723731 9.9375 16.75 C9.958125 15.8425 9.97875 14.935 10 14 C7.20124258 15.07011313 4.66799721 16.190725 2.0625 17.6875 C-1.54627873 19.23411946 -3.288232 19.18101709 -7 18 C-9 15 -9 15 -9 11.75 C-7.74589222 7.04709582 -5.51110009 4.29689504 -2 1 C-1.34 0.67 -0.68 0.34 0 0 Z " fill="#F3F4F5" transform="translate(376,349)"/>
<path d="M0 0 C3.611811 2.87303148 5.77314626 5.53871368 7 10 C7.125 12.8125 7.125 12.8125 7 15 C5.35 15.66 3.7 16.32 2 17 C2.04125 15.906875 2.0825 14.81375 2.125 13.6875 C2.32074666 9.91107771 2.32074666 9.91107771 0 7 C-0.99 6.67 -1.98 6.34 -3 6 C-2.97679687 6.97582031 -2.95359375 7.95164063 -2.9296875 8.95703125 C-2.90261719 10.86548828 -2.90261719 10.86548828 -2.875 12.8125 C-2.85179687 14.07707031 -2.82859375 15.34164062 -2.8046875 16.64453125 C-3 20 -3 20 -5 23 C-11.89257082 23.77819348 -11.89257082 23.77819348 -15.3125 21.375 C-19.03329639 16.1383236 -20.3894573 12.49095504 -20 6 C-18.35 5.67 -16.7 5.34 -15 5 C-15.061875 6.051875 -15.12375 7.10375 -15.1875 8.1875 C-14.992078 12.16108064 -14.4326186 13.91244563 -12 17 C-11.34 17 -10.68 17 -10 17 C-9.94392578 15.53626953 -9.94392578 15.53626953 -9.88671875 14.04296875 C-9.82097656 12.77066406 -9.75523437 11.49835938 -9.6875 10.1875 C-9.62949219 8.92292969 -9.57148438 7.65835938 -9.51171875 6.35546875 C-9 3 -9 3 -7.63671875 1.08203125 C-4.95343127 -0.69188434 -3.12884892 -0.50061583 0 0 Z " fill="#F1F2F4" transform="translate(413,182)"/>
<path d="M0 0 C3.9745504 0.69849772 7.26574098 2.62892769 10.75 4.5625 C11.35199219 4.89185547 11.95398438 5.22121094 12.57421875 5.56054688 C14.05170503 6.3696465 15.52616036 7.18427662 17 8 C17 9.32 17 10.64 17 12 C12.94718288 10.77472971 9.55639236 9.30119506 6 7 C5.67 8.65 5.34 10.3 5 12 C6.98 12.99 8.96 13.98 11 15 C10.34 16.32 9.68 17.64 9 19 C6.36 18.01 3.72 17.02 1 16 C0.34 17.98 -0.32 19.96 -1 22 C-0.46375 22.103125 0.0725 22.20625 0.625 22.3125 C3.62502044 23.18092697 6.2379535 24.55620296 9 26 C8.67 26.99 8.34 27.98 8 29 C3.40191871 28.46105575 0.13215631 27.23428472 -3.875 24.9375 C-4.84179688 24.38964844 -5.80859375 23.84179688 -6.8046875 23.27734375 C-7.52914063 22.85582031 -8.25359375 22.43429688 -9 22 C-7.57988184 16.74556281 -5.05083264 12.35656971 -2.33984375 7.68359375 C-1.03568916 5.07148238 -0.42099683 2.87421292 0 0 Z " fill="#F1F2F4" transform="translate(330,98)"/>
<path d="M0 0 C4.01634802 1.33878267 5.44635594 3.96603916 7.75 7.3125 C8.17410156 7.89451172 8.59820312 8.47652344 9.03515625 9.07617188 C12.05615202 13.42069836 12.05615202 13.42069836 11.765625 16.41796875 C11.51296875 16.94003906 11.2603125 17.46210938 11 18 C7.00003714 16.66667905 6.16217663 14.5042173 4 11 C2.68 11.33 1.36 11.66 0 12 C0.309375 12.5775 0.61875 13.155 0.9375 13.75 C1.92583364 15.84294184 2.5168613 17.74535275 3 20 C2.01 20.33 1.02 20.66 0 21 C-1.32 19.35 -2.64 17.7 -4 16 C-5.98 16.99 -5.98 16.99 -8 18 C-6.66511872 21.59391114 -5.03977277 24.75490696 -3 28 C-4.32 28.33 -5.64 28.66 -7 29 C-8.29623379 27.42040347 -9.58681327 25.83616587 -10.875 24.25 C-11.95394531 22.92742187 -11.95394531 22.92742187 -13.0546875 21.578125 C-14.69562089 19.403394 -15.83577329 17.43717498 -17 15 C-16.52054932 14.65219482 -16.04109863 14.30438965 -15.54711914 13.94604492 C-13.37995759 12.36741723 -11.22121803 10.77765168 -9.0625 9.1875 C-8.30775391 8.64029297 -7.55300781 8.09308594 -6.77539062 7.52929688 C-6.05673828 6.99755859 -5.33808594 6.46582031 -4.59765625 5.91796875 C-3.93258057 5.43094482 -3.26750488 4.9439209 -2.58227539 4.44213867 C-0.72330602 2.98347357 -0.72330602 2.98347357 0 0 Z " fill="#F1F3F4" transform="translate(391,146)"/>
<path d="M0 0 C0.33 0.99 0.66 1.98 1 3 C-5.625 6 -5.625 6 -9 6 C-8.67 7.98 -8.34 9.96 -8 12 C-6.6078125 11.2575 -6.6078125 11.2575 -5.1875 10.5 C-2 9 -2 9 1 9 C1 10.32 1 11.64 1 13 C-1.31 13.66 -3.62 14.32 -6 15 C-5.34 16.65 -4.68 18.3 -4 20 C1.55053286 19.25640327 1.55053286 19.25640327 7 18 C7 19.32 7 20.64 7 22 C4.91999989 22.84161854 2.83585854 23.67300763 0.75 24.5 C-0.41015625 24.9640625 -1.5703125 25.428125 -2.765625 25.90625 C-6 27 -6 27 -10 27 C-10.20157715 26.42967041 -10.4031543 25.85934082 -10.61083984 25.27172852 C-11.52476003 22.69926105 -12.44971496 20.13090033 -13.375 17.5625 C-13.69210937 16.66466797 -14.00921875 15.76683594 -14.3359375 14.84179688 C-14.6453125 13.98779297 -14.9546875 13.13378906 -15.2734375 12.25390625 C-15.55622559 11.46314697 -15.83901367 10.6723877 -16.13037109 9.85766602 C-16.85223956 7.81535797 -16.85223956 7.81535797 -19 7 C-19 6.34 -19 5.68 -19 5 C-16.39741676 4.16142312 -13.79314353 3.32896656 -11.1875 2.5 C-10.08051758 2.14228516 -10.08051758 2.14228516 -8.95117188 1.77734375 C-5.86744804 0.80059864 -3.25504191 0 0 0 Z " fill="#F1F2F4" transform="translate(316,396)"/>
<path d="M0 0 C4.13328201 1.78482632 6.47572327 4.30373764 9 8 C9.75 10.3125 9.75 10.3125 10 12 C8.68 12.99 7.36 13.98 6 15 C5.34 12.36 4.68 9.72 4 7 C0.64354028 6.04101151 -1.83724233 5.42193072 -5.05859375 7.0234375 C-7.07153257 8.55440506 -8.55157668 9.92511138 -10 12 C-10.67230968 15.71163812 -10.67230968 15.71163812 -9 19 C-6.6932782 20.54872102 -4.70154094 21.16497826 -2 22 C-2.99 23.32 -3.98 24.64 -5 26 C-9.43843439 24.60506348 -11.9434964 22.48101799 -15 19 C-16.2517847 15.24464589 -16.77373976 11.88289586 -16 8 C-11.87388132 1.36012286 -7.86137817 -0.83309403 0 0 Z " fill="#F4F5F6" transform="translate(137,351)"/>
<path d="M0 0 C2.88437779 1.29299694 4.87219421 2.65941363 7 5 C5.38462556 8.89917968 2.72075127 11.71293772 -0.125 14.75 C-0.59292969 15.25660156 -1.06085938 15.76320312 -1.54296875 16.28515625 C-2.69126541 17.52719141 -3.84508672 18.76411494 -5 20 C-4.21625 20.763125 -3.4325 21.52625 -2.625 22.3125 C0 25 0 25 2 28 C0.02 28.99 0.02 28.99 -2 30 C-5.63 26.7 -9.26 23.4 -13 20 C-10.67059464 14.17648661 -7.51398261 11.06826609 -3.21484375 6.62109375 C-1.19165629 4.22681017 -0.35132956 3.04724617 0 0 Z " fill="#F2F4F5" transform="translate(364,119)"/>
<path d="M0 0 C3.465 1.98 3.465 1.98 7 4 C5.56900493 8.11317432 3.54821899 11.21443825 0.9375 14.6875 C-1.75920044 18.20307017 -1.75920044 18.20307017 -4 22 C-2.8553125 22.433125 -2.8553125 22.433125 -1.6875 22.875 C1 24 1 24 4 26 C3.34 27.32 2.68 28.64 2 30 C-2.93054827 27.28316728 -7.46284362 24.33342102 -12 21 C-10.49838591 16.61824086 -8.12705494 13.09703811 -5.4375 9.375 C-2.22115276 4.9656225 -2.22115276 4.9656225 0 0 Z " fill="#F3F4F5" transform="translate(161,374)"/>
<path d="M0 0 C0.99 0.33 1.98 0.66 3 1 C2.52412884 7.02770138 -0.19722957 11.76678289 -3 17 C-7.41329829 16.42034291 -11.05624428 15.28983628 -15.125 13.5 C-18.40046572 12.06646284 -21.49511321 10.7378709 -25 10 C-24.67 8.02 -24.34 6.04 -24 4 C-21.10375677 2.81161519 -19.91993197 3.02548982 -16.87109375 3.99609375 C-15.73800781 4.47175781 -14.60492188 4.94742188 -13.4375 5.4375 C-8.86276125 7.42695995 -8.86276125 7.42695995 -4 8 C-2.68 5.36 -1.36 2.72 0 0 Z " fill="#F2F3F5" transform="translate(116,189)"/>
<path d="M0 0 C2.64 0.99 5.28 1.98 8 3 C6.45173401 7.95757898 4.48219062 12.63810401 2.375 17.375 C2.05015625 18.11105469 1.7253125 18.84710938 1.390625 19.60546875 C0.59615497 21.40470969 -0.20158771 23.20250496 -1 25 C-3.31 24.34 -5.62 23.68 -8 23 C-7.59007812 21.92621094 -7.18015625 20.85242188 -6.7578125 19.74609375 C-6.21339284 18.30995224 -5.66913039 16.87375113 -5.125 15.4375 C-4.85558594 14.73302734 -4.58617187 14.02855469 -4.30859375 13.30273438 C-2.64942413 8.91200501 -1.22654291 4.53106385 0 0 Z " fill="#F2F3F5" transform="translate(192,393)"/>
<path d="M0 0 C4.29 0 8.58 0 13 0 C13.268125 1.0725 13.53625 2.145 13.8125 3.25 C14.85822345 7.26998122 14.85822345 7.26998122 18 11 C11.4 11 4.8 11 -2 11 C-1.34 7.37 -0.68 3.74 0 0 Z " fill="#0E2543" transform="translate(262,181)"/>
<path d="M0 0 C6.45027515 0.26327654 9.47915791 2.50664023 14 7 C13.25 11.75 13.25 11.75 11 14 C6.95613587 14.65830346 4.53619181 14.00361933 1.1875 11.8125 C-1.08913299 10.02551978 -1.93809935 9.14099592 -3.125 6.4375 C-2.96979699 3.41104129 -2.02997266 2.19237048 0 0 Z " fill="#132A47" transform="translate(118,154)"/>
<path d="M0 0 C0.66 0.33 1.32 0.66 2 1 C0.35 4.63 -1.3 8.26 -3 12 C-5.41802195 11.71729594 -7.8340122 11.42420736 -10.25 11.125 C-10.93191406 11.04636719 -11.61382812 10.96773438 -12.31640625 10.88671875 C-15.90696311 10.43354167 -18.892507 9.90614262 -22 8 C-22 7.34 -22 6.68 -22 6 C-20.83082031 5.73445313 -19.66164063 5.46890625 -18.45703125 5.1953125 C-16.90880583 4.83875149 -15.36063141 4.48196898 -13.8125 4.125 C-13.04357422 3.95097656 -12.27464844 3.77695312 -11.48242188 3.59765625 C-8.21640031 2.84072421 -5.18548563 2.07577918 -2.07421875 0.8046875 C-1.38972656 0.53914063 -0.70523437 0.27359375 0 0 Z " fill="#172E4A" transform="translate(298,302)"/>
<path d="M0 0 C2.041875 0.6496875 2.041875 0.6496875 4.125 1.3125 C10.66084264 3.28452149 17.31436482 4.64167931 24 6 C24 6.66 24 7.32 24 8 C17.62464098 10.44850745 11.81390541 11.52014751 5 12 C3.35 8.04 1.7 4.08 0 0 Z " fill="#142B48" transform="translate(212,302)"/>
<path d="M0 0 C1.99954746 -0.04254356 4.00041636 -0.04080783 6 0 C7 1 7 1 7.1875 4.4375 C7 8 7 8 5 10 C3.35 10 1.7 10 0 10 C0 6.7 0 3.4 0 0 Z " fill="#1E3450" transform="translate(267,410)"/>
<path d="M0 0 C5.875 0.875 5.875 0.875 7 2 C7.1875 4.9375 7.1875 4.9375 7 8 C6.34 8.66 5.68 9.32 5 10 C1.875 9.625 1.875 9.625 -1 9 C-0.67 6.03 -0.34 3.06 0 0 Z " fill="#152C49" transform="translate(225,408)"/>
<path d="M0 0 C2.66866778 1.42328948 3.0107687 3.19124829 3.875 6 C2.555 6.99 1.235 7.98 -0.125 9 C-2.74687494 7.95125002 -3.91871361 7.35068687 -5.375 4.875 C-5.6225 4.25625 -5.87 3.6375 -6.125 3 C-2.765 0 -2.765 0 0 0 Z " fill="#19304C" transform="translate(347.125,382)"/>
<path d="M0 0 C5.57142857 5.14285714 5.57142857 5.14285714 6 9 C4.02 9.33 2.04 9.66 0 10 C0 6.7 0 3.4 0 0 Z " fill="#233954" transform="translate(209,93)"/>
</svg>
