<svg version="1.1" id="Layer_1" xmlns="http://www.w3.org/2000/svg" xmlns:xlink="http://www.w3.org/1999/xlink" x="0px" y="0px"
	 width="100%" viewBox="0 0 2400 5332" enable-background="new 0 0 2400 5332" xml:space="preserve">
<path fill="#4C6971" opacity="1.000000" stroke="none" 
	d="
M2402.000000,1684.000000 
	C2402.000000,2901.333252 2402.000000,4117.666504 2402.000000,5334.000000 
	C1602.000000,5334.000000 802.000000,5334.000000 2.000000,5334.000000 
	C2.000000,3556.666748 2.000000,1779.333374 2.000000,2.000001 
	C802.000000,2.000000 1602.000000,2.000000 2402.000000,2.000000 
	C2402.000000,562.333313 2402.000000,1122.666626 2402.000000,1684.000000 
M2262.428467,640.517517 
	C2252.813477,593.235962 2236.259033,548.499878 2213.326660,506.071075 
	C2185.178223,453.991669 2148.889404,408.331268 2104.463623,369.309448 
	C2052.028809,323.252411 1992.470459,289.428497 1925.951660,268.150635 
	C1877.844482,252.762299 1828.535889,244.353592 1777.941406,244.349747 
	C1389.617432,244.320251 1001.293457,244.350311 612.969482,244.293564 
	C588.632996,244.290009 564.489441,246.666550 540.585938,250.628784 
	C486.739441,259.554413 435.528473,276.558044 387.119995,302.060516 
	C347.097168,323.145325 310.625183,349.122925 277.651031,379.949005 
	C248.109467,407.566132 222.479843,438.524048 200.430466,472.496094 
	C147.166901,554.560547 120.564911,644.886658 120.540245,742.241394 
	C120.218521,2011.877319 120.320786,3281.513428 120.381729,4551.149414 
	C120.382652,4570.433594 120.838928,4589.736328 121.764809,4608.997070 
	C122.561020,4625.560059 123.711189,4642.154785 125.785927,4658.599121 
	C133.326584,4718.365234 152.057755,4774.687012 181.072784,4827.320312 
	C232.389221,4920.408691 305.909485,4990.677734 401.450806,5037.471191 
	C470.312988,5071.198242 543.357239,5088.180176 619.964600,5088.225586 
	C1000.955322,5088.451660 1381.946167,5088.309570 1762.937012,5088.362793 
	C1795.580200,5088.367188 1827.974243,5086.034668 1860.146973,5080.347656 
	C1922.451294,5069.335449 1980.630737,5047.466309 2034.563232,5014.417969 
	C2092.341309,4979.012695 2141.037842,4933.755859 2180.589600,4878.727539 
	C2209.548096,4838.438477 2231.709961,4794.610840 2247.618408,4747.663086 
	C2266.480713,4691.997070 2273.618896,4634.442383 2273.622314,4575.945312 
	C2273.690186,3392.640381 2273.704590,2209.335693 2273.615479,1026.030884 
	C2273.608154,927.748596 2272.666748,829.466675 2272.412354,731.183899 
	C2272.334473,701.130676 2268.790771,671.532654 2262.428467,640.517517 
z"/>
<path fill="#FFFEFF" opacity="1.000000" stroke="none" 
	d="
M2262.663086,641.330566 
	C2268.790771,671.532654 2272.334473,701.130676 2272.412354,731.183899 
	C2272.666748,829.466675 2273.608154,927.748596 2273.615479,1026.030884 
	C2273.704590,2209.335693 2273.690186,3392.640381 2273.622314,4575.945312 
	C2273.618896,4634.442383 2266.480713,4691.997070 2247.618408,4747.663086 
	C2231.709961,4794.610840 2209.548096,4838.438477 2180.589600,4878.727539 
	C2141.037842,4933.755859 2092.341309,4979.012695 2034.563232,5014.417969 
	C1980.630737,5047.466309 1922.451294,5069.335449 1860.146973,5080.347656 
	C1827.974243,5086.034668 1795.580200,5088.367188 1762.937012,5088.362793 
	C1381.946167,5088.309570 1000.955322,5088.451660 619.964600,5088.225586 
	C543.357239,5088.180176 470.312988,5071.198242 401.450806,5037.471191 
	C305.909485,4990.677734 232.389221,4920.408691 181.072784,4827.320312 
	C152.057755,4774.687012 133.326584,4718.365234 125.785927,4658.599121 
	C123.711189,4642.154785 122.561020,4625.560059 121.764809,4608.997070 
	C120.838928,4589.736328 120.382652,4570.433594 120.381729,4551.149414 
	C120.320786,3281.513428 120.218521,2011.877319 120.540245,742.241394 
	C120.564911,644.886658 147.166901,554.560547 200.430466,472.496094 
	C222.479843,438.524048 248.109467,407.566132 277.651031,379.949005 
	C310.625183,349.122925 347.097168,323.145325 387.119995,302.060516 
	C435.528473,276.558044 486.739441,259.554413 540.585938,250.628784 
	C564.489441,246.666550 588.632996,244.290009 612.969482,244.293564 
	C1001.293457,244.350311 1389.617432,244.320251 1777.941406,244.349747 
	C1828.535889,244.353592 1877.844482,252.762299 1925.951660,268.150635 
	C1992.470459,289.428497 2052.028809,323.252411 2104.463623,369.309448 
	C2148.889404,408.331268 2185.178223,453.991669 2213.326660,506.071075 
	C2236.259033,548.499878 2252.813477,593.235962 2262.663086,641.330566 
M242.113846,1281.000000 
	C241.960922,2242.299316 241.772644,3203.598633 241.691208,4164.897949 
	C241.678192,4318.559570 242.063370,4472.220703 242.445480,4625.882324 
	C242.542099,4664.734863 247.796600,4702.977539 259.140839,4740.188477 
	C287.320068,4832.620605 345.038177,4902.496094 425.523743,4953.979004 
	C482.578583,4990.474609 545.533569,5009.336914 613.458374,5010.752441 
	C630.786072,5011.113770 648.118591,5011.404297 665.449402,5011.436523 
	C829.110046,5011.738281 992.770874,5012.166992 1156.431641,5012.184570 
	C1353.758301,5012.205566 1551.085083,5011.862305 1748.411743,5011.677246 
	C1752.610229,5011.673340 1756.808838,5011.676758 1761.036377,5011.676758 
	C1760.880005,5009.826172 1761.066650,5008.907227 1760.740112,5008.656250 
	C1757.046143,5005.819336 1753.295288,5003.054688 1749.518921,5000.327148 
	C1721.060425,4979.770996 1702.427124,4952.860352 1695.455933,4918.083008 
	C1690.086426,4891.295410 1690.496460,4864.266113 1692.834106,4837.408203 
	C1696.645996,4793.612793 1701.747192,4749.924316 1706.697021,4706.234863 
	C1712.214355,4657.535645 1715.844238,4608.714355 1717.710938,4559.744629 
	C1717.906860,4554.604004 1716.328003,4551.000488 1712.909790,4547.359375 
	C1706.990234,4541.053711 1701.263062,4534.511719 1696.017700,4527.639648 
	C1683.258057,4510.922852 1679.989868,4492.570312 1689.044189,4473.198730 
	C1694.929688,4460.606445 1694.520386,4448.640137 1690.623779,4435.502441 
	C1678.820557,4395.706543 1662.285645,4357.985352 1642.699707,4321.532227 
	C1624.415039,4287.501465 1605.529419,4253.790527 1587.504150,4219.624512 
	C1581.793335,4208.799805 1577.118408,4197.234375 1573.523315,4185.530762 
	C1567.291504,4165.243652 1568.585449,4145.850586 1585.087280,4130.098633 
	C1589.342651,4126.037109 1588.161499,4122.136230 1586.622314,4117.455078 
	C1573.908813,4078.785889 1557.170776,4041.770264 1540.383545,4004.784912 
	C1538.874023,4001.459473 1535.624023,3998.468018 1532.466553,3996.429688 
	C1522.116821,3989.748047 1511.311401,3983.775635 1500.903442,3977.180176 
	C1411.651245,3920.624268 1329.750732,3854.584717 1252.044067,3783.241699 
	C1226.517334,3759.805420 1201.604126,3735.662598 1177.136475,3711.119141 
	C1133.582031,3667.428955 1088.466553,3625.428467 1042.826538,3583.949951 
	C1033.522583,3575.494141 1025.530640,3565.522705 1017.435974,3555.830811 
	C1010.834900,3547.927246 1005.196838,3539.226318 998.750183,3531.185303 
	C988.745605,3518.705811 978.135742,3506.706543 968.271423,3494.120850 
	C906.351562,3415.118652 849.211304,3332.700928 793.975159,3248.950928 
	C747.564087,3178.582031 701.847656,3107.757568 663.428772,3032.577881 
	C659.291199,3024.481201 654.197876,3021.052979 645.398804,3019.885742 
	C620.320801,3016.559326 595.431519,3011.770752 570.328613,3008.693848 
	C560.908142,3007.539062 557.712891,3002.860840 555.035034,2994.845215 
	C545.970154,2967.711426 537.267151,2940.378906 526.485291,2913.913086 
	C506.613403,2865.135010 481.352997,2818.891846 457.018158,2772.243652 
	C431.288818,2722.922363 406.122101,2673.342285 386.726471,2621.078857 
	C368.254822,2571.305176 356.916840,2520.191406 358.379272,2466.779541 
	C359.174103,2437.749512 363.094757,2409.026855 367.941406,2380.430420 
	C375.342468,2336.762939 383.827240,2293.340576 395.422729,2250.537354 
	C400.513702,2231.744873 409.335907,2215.343994 422.070221,2200.855225 
	C426.909882,2195.348877 431.658630,2189.746094 436.762695,2184.492432 
	C446.051819,2174.930908 455.254089,2165.242432 465.127808,2156.309082 
	C470.634277,2151.326904 472.534302,2146.031250 472.168152,2138.839355 
	C471.643402,2128.533203 472.084473,2118.179688 471.997437,2107.847412 
	C471.976227,2105.330078 471.504364,2102.816162 471.200562,2099.929199 
	C466.778381,2099.929199 463.129333,2099.944336 459.480438,2099.926514 
	C433.482208,2099.800781 407.465057,2100.222656 381.492676,2099.335449 
	C365.243896,2098.781006 348.897217,2097.188721 332.893890,2094.364990 
	C313.886169,2091.011475 301.353210,2079.666260 297.178528,2060.001709 
	C291.429504,2032.920898 282.980042,2006.664917 272.981445,1980.839844 
	C265.401794,1961.262817 265.116730,1941.169434 271.408630,1921.049561 
	C273.096985,1915.650513 274.665985,1910.211426 276.164642,1904.756226 
	C289.139160,1857.529297 304.173279,1811.034668 323.140015,1765.798340 
	C353.286743,1693.897705 386.977478,1623.654419 420.946899,1553.526489 
	C435.025970,1524.460938 448.912720,1495.322144 459.369629,1464.661865 
	C487.746185,1381.460449 525.135742,1302.423584 569.874451,1226.809082 
	C591.456848,1190.332031 614.738037,1155.100830 642.811340,1123.148315 
	C682.916565,1077.501465 732.234680,1048.976196 792.940308,1041.720215 
	C829.973633,1037.293701 867.099060,1033.589233 904.233154,1030.092163 
	C912.679932,1029.296631 919.916870,1027.781982 924.627075,1020.120056 
	C927.581665,1015.313721 932.107239,1014.456970 937.463196,1014.170349 
	C959.417725,1012.995178 981.384338,1011.766663 1003.275574,1009.777161 
	C1021.198425,1008.148438 1038.899536,1004.924438 1055.738647,998.070068 
	C1072.691650,991.169434 1084.841675,979.414551 1091.227295,962.256348 
	C1094.116211,954.493774 1096.652588,946.418213 1097.909058,938.262878 
	C1102.269531,909.962585 1106.085938,881.576904 1109.932129,853.199707 
	C1111.934326,838.427185 1113.564697,823.604309 1115.454468,808.051880 
	C1100.788086,807.810181 1094.995239,797.824158 1090.047241,786.891296 
	C1089.772949,786.285156 1089.544434,785.657532 1089.308716,785.034668 
	C1077.350220,753.441406 1075.473022,720.648132 1079.214355,687.574158 
	C1081.305298,669.089478 1089.514160,662.482361 1108.080811,660.279419 
	C1111.716431,659.847961 1115.406494,659.885681 1119.049561,659.500793 
	C1122.582275,659.127563 1126.086914,658.488953 1129.652100,657.959717 
	C1130.459839,642.234436 1131.049683,627.272827 1132.033447,612.337097 
	C1133.960327,583.080444 1136.900269,553.967529 1141.945801,525.019165 
	C1150.482666,476.041565 1176.459961,439.016388 1217.702515,412.468597 
	C1230.233765,404.402283 1244.147095,398.482391 1257.432739,391.589630 
	C1261.363037,389.550537 1265.311523,387.546417 1269.251587,385.526276 
	C1269.025391,384.843231 1268.799316,384.160187 1268.573120,383.477112 
	C1264.293701,383.266907 1260.015503,382.905487 1255.734619,382.870117 
	C1218.404785,382.561432 1181.073853,382.010651 1143.744507,382.094666 
	C967.087646,382.492249 790.431274,383.110504 613.774414,383.532501 
	C588.616516,383.592590 563.972046,387.344116 539.596802,392.982941 
	C453.277344,412.951569 382.622650,458.453033 327.298615,526.999756 
	C273.346100,593.847107 243.793991,669.977173 243.747864,757.021484 
	C243.655685,931.014526 242.708481,1105.007202 242.113846,1281.000000 
M1729.976685,2375.011475 
	C1692.359985,2296.676758 1654.876587,2218.277588 1617.048340,2140.045166 
	C1605.119385,2115.375000 1594.819824,2090.180420 1588.535400,2063.474854 
	C1583.503418,2042.091187 1578.218628,2020.742554 1574.049805,1999.184204 
	C1554.393677,1897.538696 1535.100586,1795.823242 1515.619263,1694.143921 
	C1513.946899,1685.415405 1511.844604,1676.769165 1510.011353,1668.401855 
	C1501.895264,1666.440918 1496.537231,1670.437744 1491.096313,1673.242676 
	C1455.791748,1691.442383 1422.942627,1713.602661 1389.894165,1735.524658 
	C1369.904297,1748.784302 1356.339233,1765.773438 1347.700195,1788.145996 
	C1318.323853,1864.223755 1288.530273,1940.148193 1257.927979,2015.739380 
	C1249.846558,2035.701294 1246.427124,2055.807617 1246.635132,2076.927734 
	C1246.670410,2080.512939 1247.121094,2084.093994 1247.301270,2086.587891 
	C1255.098999,2090.781982 1262.065063,2093.946289 1268.421509,2098.053955 
	C1289.912720,2111.942627 1304.117920,2131.974609 1313.543335,2155.229004 
	C1321.157959,2174.015625 1328.227051,2193.143066 1333.806274,2212.615723 
	C1366.165649,2325.557861 1398.019043,2438.645264 1430.020508,2551.690186 
	C1432.716675,2561.214355 1435.243530,2570.786133 1437.678955,2579.712646 
	C1429.609741,2588.158691 1422.271729,2595.839355 1414.550781,2603.920654 
	C1417.912842,2616.318604 1421.262329,2629.175781 1424.886597,2641.954590 
	C1451.629395,2736.249268 1472.860352,2831.747070 1485.367188,2928.992188 
	C1493.183472,2989.767334 1499.257446,3050.767578 1506.007446,3111.678467 
	C1510.385620,3151.186279 1516.695068,3190.312744 1532.377075,3227.137695 
	C1543.979614,3254.382812 1555.661133,3281.702148 1569.339722,3307.928223 
	C1586.884644,3341.567383 1606.393433,3374.186035 1625.188965,3407.168457 
	C1652.074219,3454.346924 1672.923462,3503.874756 1683.433228,3557.362305 
	C1692.418457,3603.090088 1701.648438,3648.783203 1709.654785,3694.686279 
	C1722.354492,3767.498779 1734.381836,3840.431885 1746.137085,3913.403564 
	C1749.877686,3936.624023 1757.228271,3957.795166 1772.542603,3975.995850 
	C1778.534912,3983.116943 1783.568604,3991.040283 1789.107910,3998.547363 
	C1805.182861,4020.334961 1818.420654,4043.762451 1830.358643,4068.040527 
	C1845.827393,4099.498047 1849.654419,4131.531250 1841.097168,4165.978516 
	C1831.154663,4206.001465 1823.071899,4246.517578 1815.254517,4287.026367 
	C1810.501465,4311.657227 1809.956665,4336.738770 1814.187378,4361.638672 
	C1819.596436,4393.473145 1825.254883,4425.267090 1830.969849,4457.048828 
	C1835.627808,4482.951660 1841.123047,4508.379883 1854.501465,4531.831543 
	C1864.036865,4548.546875 1866.444458,4567.113770 1856.939453,4585.502930 
	C1854.292725,4590.622559 1855.601562,4595.757812 1857.298950,4600.992676 
	C1870.028320,4640.251953 1882.754395,4679.513184 1895.203735,4718.861816 
	C1907.610352,4758.075195 1916.246094,4797.972656 1916.714844,4839.373047 
	C1917.155396,4878.295410 1909.090698,4914.698730 1886.975830,4947.404297 
	C1873.133667,4967.875000 1855.363037,4984.234863 1835.385498,4998.438965 
	C1832.691040,5000.354492 1830.128906,5002.455566 1827.505493,5004.470703 
	C1827.859985,5005.074707 1828.214355,5005.678711 1828.568848,5006.282715 
	C1834.766113,5005.231445 1841.007812,5004.390625 1847.153931,5003.096191 
	C1917.709351,4988.234375 1979.180908,4955.749512 2031.330078,4906.204102 
	C2099.460693,4841.474121 2138.374512,4761.812988 2148.430176,4668.512695 
	C2150.883789,4645.746582 2149.808838,4622.567383 2149.828857,4599.577148 
	C2150.221436,4144.957031 2150.552490,3690.336914 2150.855225,3235.716797 
	C2150.929443,3124.394775 2150.862549,3013.072754 2150.835938,2901.750732 
	C2150.834961,2898.061768 2150.564697,2894.372559 2150.419922,2890.683594 
	C2147.134033,2893.463379 2145.667236,2896.331787 2144.251953,2899.225342 
	C2132.225586,2923.818604 2119.333740,2948.074463 2101.739746,2969.075684 
	C2016.650757,3070.641602 1908.030273,3114.290527 1776.739136,3095.262695 
	C1683.109619,3081.692871 1608.055298,3033.531250 1553.313599,2957.137939 
	C1490.052979,2868.856201 1473.161987,2770.271729 1501.556274,2665.332275 
	C1531.808350,2553.526611 1616.310791,2466.802734 1726.672485,2431.058838 
	C1733.878540,2428.725098 1740.985962,2426.086670 1749.061035,2423.267822 
	C1745.077881,2406.147949 1737.009888,2391.581055 1729.976685,2375.011475 
M1394.020386,1100.946533 
	C1403.768188,1106.021851 1413.859253,1110.540405 1423.190186,1116.292114 
	C1441.025269,1127.285889 1458.474609,1138.910156 1475.980835,1150.429810 
	C1481.263550,1153.906128 1484.566895,1158.719604 1483.942627,1165.519653 
	C1483.403931,1171.387085 1487.180786,1174.377930 1491.548096,1177.334961 
	C1524.370850,1199.558838 1557.068604,1221.966553 1589.859619,1244.237427 
	C1653.095093,1287.185425 1697.260254,1344.997803 1724.187134,1416.284424 
	C1750.003052,1484.629150 1761.084961,1555.818970 1764.086914,1628.384521 
	C1765.615234,1665.327881 1765.410400,1702.346924 1765.714722,1739.333984 
	C1765.789307,1748.393799 1766.880737,1757.124390 1769.003662,1765.949951 
	C1774.372681,1788.271606 1779.679443,1810.638306 1783.948730,1833.187988 
	C1792.370361,1877.668823 1800.062744,1922.287476 1808.076904,1966.845581 
	C1813.050537,1994.498657 1820.906128,2021.166016 1833.648682,2046.390991 
	C1845.055176,2068.971436 1855.592407,2091.989990 1866.571899,2114.787109 
	C1888.750610,2160.837646 1907.450806,2208.187012 1916.727173,2258.634033 
	C1922.141479,2288.077881 1925.012207,2317.982910 1930.099976,2347.495605 
	C1934.164673,2371.073242 1939.818115,2394.378418 1944.831055,2417.790771 
	C1946.993896,2427.892090 1953.065063,2433.637207 1963.335938,2436.184082 
	C1976.558594,2439.462646 1989.438843,2444.098389 2002.538452,2447.902344 
	C2017.481323,2452.241455 2028.988403,2460.239990 2033.844360,2475.823242 
	C2034.235718,2477.079102 2035.175415,2478.164795 2035.560303,2479.421387 
	C2036.941528,2483.929199 2040.191284,2486.330811 2044.259277,2488.388916 
	C2056.139893,2494.399902 2067.794678,2500.855957 2079.643555,2506.931152 
	C2093.709229,2514.143555 2101.117676,2525.971680 2105.269775,2540.867432 
	C2107.553467,2549.059570 2111.352295,2556.965332 2115.392334,2564.504883 
	C2125.135498,2582.687744 2135.422852,2600.579102 2145.489258,2618.588623 
	C2146.387451,2620.195312 2147.275391,2621.807861 2148.167969,2623.417725 
	C2149.673584,2619.655273 2149.672363,2616.160645 2149.673584,2612.666016 
	C2149.885010,2049.090332 2150.165039,1485.514404 2150.209717,921.938660 
	C2150.214844,860.291077 2148.854492,798.643555 2148.152344,736.995728 
	C2147.885498,713.565796 2144.732910,690.678223 2138.167725,668.049072 
	C2105.113037,554.115479 2036.195068,470.311676 1928.786377,419.375793 
	C1879.835571,396.162170 1828.245850,383.285797 1773.421753,383.531097 
	C1690.442261,383.902374 1607.456665,382.756348 1524.473022,382.518707 
	C1488.483154,382.415649 1452.491089,382.945404 1416.500854,383.261810 
	C1413.111572,383.291565 1409.727051,383.854279 1406.340332,384.169586 
	C1410.742432,387.776062 1415.206299,389.810486 1419.696411,391.785034 
	C1454.083984,406.906921 1485.300903,426.029846 1505.227173,459.437897 
	C1505.735474,460.290192 1506.304810,461.196564 1507.068970,461.790375 
	C1510.952026,464.807983 1514.522827,468.629944 1518.913452,470.515442 
	C1531.314819,475.841003 1540.905518,484.178680 1548.279663,495.255157 
	C1556.457275,507.538361 1563.141479,520.603394 1566.247314,535.100281 
	C1573.625488,569.537720 1572.222290,603.949768 1564.838867,638.203125 
	C1558.549316,667.380798 1546.821655,694.565369 1533.860718,721.275330 
	C1531.566406,726.003235 1529.377930,730.782471 1527.149902,735.518494 
	C1529.795288,738.643982 1531.819092,741.271790 1534.084595,743.671326 
	C1544.843628,755.065552 1547.177368,768.352417 1541.458740,782.513733 
	C1536.989136,793.582275 1531.495361,804.306274 1525.661743,814.738892 
	C1516.887939,830.429810 1507.256104,845.638489 1498.302124,861.231873 
	C1492.041260,872.135315 1483.583618,880.271790 1471.281616,883.407593 
	C1464.774780,885.066223 1461.463745,889.124146 1458.523071,894.687500 
	C1447.943604,914.703308 1437.674561,934.935730 1425.966431,954.286560 
	C1415.995239,970.766785 1404.939453,986.732910 1392.929199,1001.781738 
	C1386.228638,1010.177612 1377.463867,1017.825623 1368.063965,1022.925659 
	C1357.740967,1028.526489 1352.572021,1036.010254 1351.033081,1046.855469 
	C1350.334229,1051.779419 1350.320068,1056.796875 1349.851318,1061.758179 
	C1348.807861,1072.804321 1353.935303,1080.280518 1363.375366,1085.206421 
	C1373.114624,1090.288452 1382.922241,1095.239502 1394.020386,1100.946533 
z"/>
<path fill="#1D428A" opacity="1.000000" stroke="none" 
	d="
M242.114105,1280.000000 
	C242.708481,1105.007202 243.655685,931.014526 243.747864,757.021484 
	C243.793991,669.977173 273.346100,593.847107 327.298615,526.999756 
	C382.622650,458.453033 453.277344,412.951569 539.596802,392.982941 
	C563.972046,387.344116 588.616516,383.592590 613.774414,383.532501 
	C790.431274,383.110504 967.087646,382.492249 1143.744507,382.094666 
	C1181.073853,382.010651 1218.404785,382.561432 1255.734619,382.870117 
	C1260.015503,382.905487 1264.293701,383.266907 1268.573120,383.477112 
	C1268.799316,384.160187 1269.025391,384.843231 1269.251587,385.526276 
	C1265.311523,387.546417 1261.363037,389.550537 1257.432739,391.589630 
	C1244.147095,398.482391 1230.233765,404.402283 1217.702515,412.468597 
	C1176.459961,439.016388 1150.482666,476.041565 1141.945801,525.019165 
	C1136.900269,553.967529 1133.960327,583.080444 1132.033447,612.337097 
	C1131.049683,627.272827 1130.459839,642.234436 1129.652100,657.959717 
	C1126.086914,658.488953 1122.582275,659.127563 1119.049561,659.500793 
	C1115.406494,659.885681 1111.716431,659.847961 1108.080811,660.279419 
	C1089.514160,662.482361 1081.305298,669.089478 1079.214355,687.574158 
	C1075.473022,720.648132 1077.350220,753.441406 1089.308716,785.034668 
	C1089.544434,785.657532 1089.772949,786.285156 1090.047241,786.891296 
	C1094.995239,797.824158 1100.788086,807.810181 1115.454468,808.051880 
	C1113.564697,823.604309 1111.934326,838.427185 1109.932129,853.199707 
	C1106.085938,881.576904 1102.269531,909.962585 1097.909058,938.262878 
	C1096.652588,946.418213 1094.116211,954.493774 1091.227295,962.256348 
	C1084.841675,979.414551 1072.691650,991.169434 1055.738647,998.070068 
	C1038.899536,1004.924438 1021.198425,1008.148438 1003.275574,1009.777161 
	C981.384338,1011.766663 959.417725,1012.995178 937.463196,1014.170349 
	C932.107239,1014.456970 927.581665,1015.313721 924.627075,1020.120056 
	C919.916870,1027.781982 912.679932,1029.296631 904.233154,1030.092163 
	C867.099060,1033.589233 829.973633,1037.293701 792.940308,1041.720215 
	C732.234680,1048.976196 682.916565,1077.501465 642.811340,1123.148315 
	C614.738037,1155.100830 591.456848,1190.332031 569.874451,1226.809082 
	C525.135742,1302.423584 487.746185,1381.460449 459.369629,1464.661865 
	C448.912720,1495.322144 435.025970,1524.460938 420.946899,1553.526489 
	C386.977478,1623.654419 353.286743,1693.897705 323.140015,1765.798340 
	C304.173279,1811.034668 289.139160,1857.529297 276.164642,1904.756226 
	C274.665985,1910.211426 273.096985,1915.650513 271.408630,1921.049561 
	C265.116730,1941.169434 265.401794,1961.262817 272.981445,1980.839844 
	C282.980042,2006.664917 291.429504,2032.920898 297.178528,2060.001709 
	C301.353210,2079.666260 313.886169,2091.011475 332.893890,2094.364990 
	C348.897217,2097.188721 365.243896,2098.781006 381.492676,2099.335449 
	C407.465057,2100.222656 433.482208,2099.800781 459.480438,2099.926514 
	C463.129333,2099.944336 466.778381,2099.929199 471.200562,2099.929199 
	C471.504364,2102.816162 471.976227,2105.330078 471.997437,2107.847412 
	C472.084473,2118.179688 471.643402,2128.533203 472.168152,2138.839355 
	C472.534302,2146.031250 470.634277,2151.326904 465.127808,2156.309082 
	C455.254089,2165.242432 446.051819,2174.930908 436.762695,2184.492432 
	C431.658630,2189.746094 426.909882,2195.348877 422.070221,2200.855225 
	C409.335907,2215.343994 400.513702,2231.744873 395.422729,2250.537354 
	C383.827240,2293.340576 375.342468,2336.762939 367.941406,2380.430420 
	C363.094757,2409.026855 359.174103,2437.749512 358.379272,2466.779541 
	C356.916840,2520.191406 368.254822,2571.305176 386.726471,2621.078857 
	C406.122101,2673.342285 431.288818,2722.922363 457.018158,2772.243652 
	C481.352997,2818.891846 506.613403,2865.135010 526.485291,2913.913086 
	C537.267151,2940.378906 545.970154,2967.711426 555.035034,2994.845215 
	C557.712891,3002.860840 560.908142,3007.539062 570.328613,3008.693848 
	C595.431519,3011.770752 620.320801,3016.559326 645.398804,3019.885742 
	C654.197876,3021.052979 659.291199,3024.481201 663.428772,3032.577881 
	C701.847656,3107.757568 747.564087,3178.582031 793.975159,3248.950928 
	C849.211304,3332.700928 906.351562,3415.118652 968.271423,3494.120850 
	C978.135742,3506.706543 988.745605,3518.705811 998.750183,3531.185303 
	C1005.196838,3539.226318 1010.834900,3547.927246 1017.435974,3555.830811 
	C1025.530640,3565.522705 1033.522583,3575.494141 1042.826538,3583.949951 
	C1088.466553,3625.428467 1133.582031,3667.428955 1177.136475,3711.119141 
	C1201.604126,3735.662598 1226.517334,3759.805420 1252.044067,3783.241699 
	C1329.750732,3854.584717 1411.651245,3920.624268 1500.903442,3977.180176 
	C1511.311401,3983.775635 1522.116821,3989.748047 1532.466553,3996.429688 
	C1535.624023,3998.468018 1538.874023,4001.459473 1540.383545,4004.784912 
	C1557.170776,4041.770264 1573.908813,4078.785889 1586.622314,4117.455078 
	C1588.161499,4122.136230 1589.342651,4126.037109 1585.087280,4130.098633 
	C1568.585449,4145.850586 1567.291504,4165.243652 1573.523315,4185.530762 
	C1577.118408,4197.234375 1581.793335,4208.799805 1587.504150,4219.624512 
	C1605.529419,4253.790527 1624.415039,4287.501465 1642.699707,4321.532227 
	C1662.285645,4357.985352 1678.820557,4395.706543 1690.623779,4435.502441 
	C1694.520386,4448.640137 1694.929688,4460.606445 1689.044189,4473.198730 
	C1679.989868,4492.570312 1683.258057,4510.922852 1696.017700,4527.639648 
	C1701.263062,4534.511719 1706.990234,4541.053711 1712.909790,4547.359375 
	C1716.328003,4551.000488 1717.906860,4554.604004 1717.710938,4559.744629 
	C1715.844238,4608.714355 1712.214355,4657.535645 1706.697021,4706.234863 
	C1701.747192,4749.924316 1696.645996,4793.612793 1692.834106,4837.408203 
	C1690.496460,4864.266113 1690.086426,4891.295410 1695.455933,4918.083008 
	C1702.427124,4952.860352 1721.060425,4979.770996 1749.518921,5000.327148 
	C1753.295288,5003.054688 1757.046143,5005.819336 1760.740112,5008.656250 
	C1761.066650,5008.907227 1760.880005,5009.826172 1761.036377,5011.676758 
	C1756.808838,5011.676758 1752.610229,5011.673340 1748.411743,5011.677246 
	C1551.085083,5011.862305 1353.758301,5012.205566 1156.431641,5012.184570 
	C992.770874,5012.166992 829.110046,5011.738281 665.449402,5011.436523 
	C648.118591,5011.404297 630.786072,5011.113770 613.458374,5010.752441 
	C545.533569,5009.336914 482.578583,4990.474609 425.523743,4953.979004 
	C345.038177,4902.496094 287.320068,4832.620605 259.140839,4740.188477 
	C247.796600,4702.977539 242.542099,4664.734863 242.445480,4625.882324 
	C242.063370,4472.220703 241.678192,4318.559570 241.691208,4164.897949 
	C241.772644,3203.598633 241.960922,2242.299316 242.114105,1280.000000 
M694.916748,4096.745117 
	C696.093445,4210.371582 696.945618,4324.006836 703.985718,4437.477539 
	C707.080322,4487.355957 710.153564,4537.235840 713.221436,4587.116211 
	C713.507751,4591.771973 713.765198,4596.432129 713.887451,4601.093750 
	C713.999695,4605.373535 713.911255,4609.658691 713.911255,4613.941406 
	C713.289917,4613.972168 712.668640,4614.002441 712.047302,4614.033203 
	C679.225830,4432.797363 646.404358,4251.561035 613.655334,4070.725098 
	C569.823303,4070.725098 527.343201,4070.725098 484.752716,4070.725098 
	C484.752716,4303.862305 484.752716,4536.294922 484.752716,4769.773438 
	C511.784790,4768.963867 538.251648,4771.187012 565.684631,4767.833008 
	C565.186523,4588.938477 567.268921,4411.021484 557.702271,4233.225586 
	C558.533508,4233.147461 559.364685,4233.068848 560.195862,4232.990723 
	C593.335815,4411.820801 626.475708,4590.650879 659.525940,4768.997070 
	C699.775879,4768.997070 738.620972,4768.997070 777.594543,4768.997070 
	C777.594543,4535.871094 777.594543,4303.417969 777.594543,4070.561523 
	C749.891602,4070.561523 722.756714,4070.561523 694.882507,4070.561523 
	C694.882507,4078.992188 694.882507,4086.905273 694.916748,4096.745117 
M961.007751,4768.338379 
	C972.670959,4768.124023 984.346191,4768.176270 995.995361,4767.650391 
	C1057.248169,4764.886230 1099.680176,4716.874512 1101.915161,4662.609375 
	C1103.984497,4612.367188 1103.319580,4561.997559 1103.229980,4511.685059 
	C1103.175049,4480.861816 1091.562134,4454.633301 1068.836060,4433.520996 
	C1066.257080,4431.125488 1063.932129,4428.455566 1060.803711,4425.199219 
	C1065.545044,4420.844238 1069.605347,4417.377930 1073.367920,4413.614746 
	C1091.326538,4395.653809 1101.736694,4373.955078 1102.219360,4348.576660 
	C1103.219849,4295.941406 1103.566895,4243.289062 1103.633667,4190.643066 
	C1103.654907,4173.933105 1100.327637,4157.562500 1094.205078,4141.845703 
	C1077.159302,4098.088379 1044.265503,4074.476074 998.398376,4072.116455 
	C948.519470,4069.550049 898.455566,4070.572754 848.471741,4070.085205 
	C846.911133,4070.070068 845.344666,4070.663330 843.759888,4070.977051 
	C843.759888,4303.911133 843.759888,4536.423340 843.759888,4770.161133 
	C882.552979,4769.562988 920.782837,4768.973145 961.007751,4768.338379 
M1155.404175,4590.227051 
	C1151.619385,4621.303711 1147.737671,4652.368652 1144.080444,4683.459961 
	C1141.123657,4708.598633 1138.393555,4733.764648 1135.682129,4758.931152 
	C1135.311035,4762.375977 1135.631104,4765.895996 1135.631104,4768.942871 
	C1167.084473,4768.942871 1197.262939,4768.942871 1228.008301,4768.942871 
	C1230.048828,4744.385254 1232.018066,4720.496582 1234.023071,4696.611328 
	C1235.667236,4677.025391 1237.162476,4657.423828 1239.104004,4637.867188 
	C1240.046753,4628.371094 1240.534668,4628.040039 1250.287720,4627.944824 
	C1273.282349,4627.720215 1296.279907,4627.781250 1319.276367,4627.784180 
	C1320.507812,4627.784180 1321.739380,4628.309082 1323.516724,4628.713867 
	C1327.495605,4675.658203 1331.450928,4722.324707 1335.378296,4768.659668 
	C1354.665894,4771.175781 1421.559326,4769.770020 1433.170044,4766.585449 
	C1406.083984,4534.690918 1379.446045,4302.592773 1352.106934,4070.508057 
	C1306.785522,4070.508057 1262.907837,4070.508057 1218.124023,4070.508057 
	C1215.400635,4092.275879 1212.651611,4113.676758 1210.059570,4135.096191 
	C1205.698242,4171.136230 1201.452393,4207.190430 1197.128662,4243.234863 
	C1192.090942,4285.229980 1187.026367,4327.222656 1181.964844,4369.215332 
	C1177.620605,4405.255371 1173.246948,4441.292480 1168.917236,4477.334473 
	C1164.468018,4514.370117 1160.056396,4551.410156 1155.404175,4590.227051 
z"/>
<path fill="#C8102E" opacity="1.000000" stroke="none" 
	d="
M1730.261963,2375.713379 
	C1737.009888,2391.581055 1745.077881,2406.147949 1749.061035,2423.267822 
	C1740.985962,2426.086670 1733.878540,2428.725098 1726.672485,2431.058838 
	C1616.310791,2466.802734 1531.808350,2553.526611 1501.556274,2665.332275 
	C1473.161987,2770.271729 1490.052979,2868.856201 1553.313599,2957.137939 
	C1608.055298,3033.531250 1683.109619,3081.692871 1776.739136,3095.262695 
	C1908.030273,3114.290527 2016.650757,3070.641602 2101.739746,2969.075684 
	C2119.333740,2948.074463 2132.225586,2923.818604 2144.251953,2899.225342 
	C2145.667236,2896.331787 2147.134033,2893.463379 2150.419922,2890.683594 
	C2150.564697,2894.372559 2150.834961,2898.061768 2150.835938,2901.750732 
	C2150.862549,3013.072754 2150.929443,3124.394775 2150.855225,3235.716797 
	C2150.552490,3690.336914 2150.221436,4144.957031 2149.828857,4599.577148 
	C2149.808838,4622.567383 2150.883789,4645.746582 2148.430176,4668.512695 
	C2138.374512,4761.812988 2099.460693,4841.474121 2031.330078,4906.204102 
	C1979.180908,4955.749512 1917.709351,4988.234375 1847.153931,5003.096191 
	C1841.007812,5004.390625 1834.766113,5005.231445 1828.568848,5006.282715 
	C1828.214355,5005.678711 1827.859985,5005.074707 1827.505493,5004.470703 
	C1830.128906,5002.455566 1832.691040,5000.354492 1835.385498,4998.438965 
	C1855.363037,4984.234863 1873.133667,4967.875000 1886.975830,4947.404297 
	C1909.090698,4914.698730 1917.155396,4878.295410 1916.714844,4839.373047 
	C1916.246094,4797.972656 1907.610352,4758.075195 1895.203735,4718.861816 
	C1882.754395,4679.513184 1870.028320,4640.251953 1857.298950,4600.992676 
	C1855.601562,4595.757812 1854.292725,4590.622559 1856.939453,4585.502930 
	C1866.444458,4567.113770 1864.036865,4548.546875 1854.501465,4531.831543 
	C1841.123047,4508.379883 1835.627808,4482.951660 1830.969849,4457.048828 
	C1825.254883,4425.267090 1819.596436,4393.473145 1814.187378,4361.638672 
	C1809.956665,4336.738770 1810.501465,4311.657227 1815.254517,4287.026367 
	C1823.071899,4246.517578 1831.154663,4206.001465 1841.097168,4165.978516 
	C1849.654419,4131.531250 1845.827393,4099.498047 1830.358643,4068.040527 
	C1818.420654,4043.762451 1805.182861,4020.334961 1789.107910,3998.547363 
	C1783.568604,3991.040283 1778.534912,3983.116943 1772.542603,3975.995850 
	C1757.228271,3957.795166 1749.877686,3936.624023 1746.137085,3913.403564 
	C1734.381836,3840.431885 1722.354492,3767.498779 1709.654785,3694.686279 
	C1701.648438,3648.783203 1692.418457,3603.090088 1683.433228,3557.362305 
	C1672.923462,3503.874756 1652.074219,3454.346924 1625.188965,3407.168457 
	C1606.393433,3374.186035 1586.884644,3341.567383 1569.339722,3307.928223 
	C1555.661133,3281.702148 1543.979614,3254.382812 1532.377075,3227.137695 
	C1516.695068,3190.312744 1510.385620,3151.186279 1506.007446,3111.678467 
	C1499.257446,3050.767578 1493.183472,2989.767334 1485.367188,2928.992188 
	C1472.860352,2831.747070 1451.629395,2736.249268 1424.886597,2641.954590 
	C1421.262329,2629.175781 1417.912842,2616.318604 1414.550781,2603.920654 
	C1422.271729,2595.839355 1429.609741,2588.158691 1437.678955,2579.712646 
	C1435.243530,2570.786133 1432.716675,2561.214355 1430.020508,2551.690186 
	C1398.019043,2438.645264 1366.165649,2325.557861 1333.806274,2212.615723 
	C1328.227051,2193.143066 1321.157959,2174.015625 1313.543335,2155.229004 
	C1304.117920,2131.974609 1289.912720,2111.942627 1268.421509,2098.053955 
	C1262.065063,2093.946289 1255.098999,2090.781982 1247.301270,2086.587891 
	C1247.121094,2084.093994 1246.670410,2080.512939 1246.635132,2076.927734 
	C1246.427124,2055.807617 1249.846558,2035.701294 1257.927979,2015.739380 
	C1288.530273,1940.148193 1318.323853,1864.223755 1347.700195,1788.145996 
	C1356.339233,1765.773438 1369.904297,1748.784302 1389.894165,1735.524658 
	C1422.942627,1713.602661 1455.791748,1691.442383 1491.096313,1673.242676 
	C1496.537231,1670.437744 1501.895264,1666.440918 1510.011353,1668.401855 
	C1511.844604,1676.769165 1513.946899,1685.415405 1515.619263,1694.143921 
	C1535.100586,1795.823242 1554.393677,1897.538696 1574.049805,1999.184204 
	C1578.218628,2020.742554 1583.503418,2042.091187 1588.535400,2063.474854 
	C1594.819824,2090.180420 1605.119385,2115.375000 1617.048340,2140.045166 
	C1654.876587,2218.277588 1692.359985,2296.676758 1730.261963,2375.713379 
z"/>
<path fill="#C8102E" opacity="1.000000" stroke="none" 
	d="
M1393.360107,1100.597168 
	C1382.922241,1095.239502 1373.114624,1090.288452 1363.375366,1085.206421 
	C1353.935303,1080.280518 1348.807861,1072.804321 1349.851318,1061.758179 
	C1350.320068,1056.796875 1350.334229,1051.779419 1351.033081,1046.855469 
	C1352.572021,1036.010254 1357.740967,1028.526489 1368.063965,1022.925659 
	C1377.463867,1017.825623 1386.228638,1010.177612 1392.929199,1001.781738 
	C1404.939453,986.732910 1415.995239,970.766785 1425.966431,954.286560 
	C1437.674561,934.935730 1447.943604,914.703308 1458.523071,894.687500 
	C1461.463745,889.124146 1464.774780,885.066223 1471.281616,883.407593 
	C1483.583618,880.271790 1492.041260,872.135315 1498.302124,861.231873 
	C1507.256104,845.638489 1516.887939,830.429810 1525.661743,814.738892 
	C1531.495361,804.306274 1536.989136,793.582275 1541.458740,782.513733 
	C1547.177368,768.352417 1544.843628,755.065552 1534.084595,743.671326 
	C1531.819092,741.271790 1529.795288,738.643982 1527.149902,735.518494 
	C1529.377930,730.782471 1531.566406,726.003235 1533.860718,721.275330 
	C1546.821655,694.565369 1558.549316,667.380798 1564.838867,638.203125 
	C1572.222290,603.949768 1573.625488,569.537720 1566.247314,535.100281 
	C1563.141479,520.603394 1556.457275,507.538361 1548.279663,495.255157 
	C1540.905518,484.178680 1531.314819,475.841003 1518.913452,470.515442 
	C1514.522827,468.629944 1510.952026,464.807983 1507.068970,461.790375 
	C1506.304810,461.196564 1505.735474,460.290192 1505.227173,459.437897 
	C1485.300903,426.029846 1454.083984,406.906921 1419.696411,391.785034 
	C1415.206299,389.810486 1410.742432,387.776062 1406.340332,384.169586 
	C1409.727051,383.854279 1413.111572,383.291565 1416.500854,383.261810 
	C1452.491089,382.945404 1488.483154,382.415649 1524.473022,382.518707 
	C1607.456665,382.756348 1690.442261,383.902374 1773.421753,383.531097 
	C1828.245850,383.285797 1879.835571,396.162170 1928.786377,419.375793 
	C2036.195068,470.311676 2105.113037,554.115479 2138.167725,668.049072 
	C2144.732910,690.678223 2147.885498,713.565796 2148.152344,736.995728 
	C2148.854492,798.643555 2150.214844,860.291077 2150.209717,921.938660 
	C2150.165039,1485.514404 2149.885010,2049.090332 2149.673584,2612.666016 
	C2149.672363,2616.160645 2149.673584,2619.655273 2148.167969,2623.417725 
	C2147.275391,2621.807861 2146.387451,2620.195312 2145.489258,2618.588623 
	C2135.422852,2600.579102 2125.135498,2582.687744 2115.392334,2564.504883 
	C2111.352295,2556.965332 2107.553467,2549.059570 2105.269775,2540.867432 
	C2101.117676,2525.971680 2093.709229,2514.143555 2079.643555,2506.931152 
	C2067.794678,2500.855957 2056.139893,2494.399902 2044.259277,2488.388916 
	C2040.191284,2486.330811 2036.941528,2483.929199 2035.560303,2479.421387 
	C2035.175415,2478.164795 2034.235718,2477.079102 2033.844360,2475.823242 
	C2028.988403,2460.239990 2017.481323,2452.241455 2002.538452,2447.902344 
	C1989.438843,2444.098389 1976.558594,2439.462646 1963.335938,2436.184082 
	C1953.065063,2433.637207 1946.993896,2427.892090 1944.831055,2417.790771 
	C1939.818115,2394.378418 1934.164673,2371.073242 1930.099976,2347.495605 
	C1925.012207,2317.982910 1922.141479,2288.077881 1916.727173,2258.634033 
	C1907.450806,2208.187012 1888.750610,2160.837646 1866.571899,2114.787109 
	C1855.592407,2091.989990 1845.055176,2068.971436 1833.648682,2046.390991 
	C1820.906128,2021.166016 1813.050537,1994.498657 1808.076904,1966.845581 
	C1800.062744,1922.287476 1792.370361,1877.668823 1783.948730,1833.187988 
	C1779.679443,1810.638306 1774.372681,1788.271606 1769.003662,1765.949951 
	C1766.880737,1757.124390 1765.789307,1748.393799 1765.714722,1739.333984 
	C1765.410400,1702.346924 1765.615234,1665.327881 1764.086914,1628.384521 
	C1761.084961,1555.818970 1750.003052,1484.629150 1724.187134,1416.284424 
	C1697.260254,1344.997803 1653.095093,1287.185425 1589.859619,1244.237427 
	C1557.068604,1221.966553 1524.370850,1199.558838 1491.548096,1177.334961 
	C1487.180786,1174.377930 1483.403931,1171.387085 1483.942627,1165.519653 
	C1484.566895,1158.719604 1481.263550,1153.906128 1475.980835,1150.429810 
	C1458.474609,1138.910156 1441.025269,1127.285889 1423.190186,1116.292114 
	C1413.859253,1110.540405 1403.768188,1106.021851 1393.360107,1100.597168 
z"/>
<path fill="#FDFEFE" opacity="1.000000" stroke="none" 
	d="
M694.899658,4095.781738 
	C694.882507,4086.905273 694.882507,4078.992188 694.882507,4070.561523 
	C722.756714,4070.561523 749.891602,4070.561523 777.594543,4070.561523 
	C777.594543,4303.417969 777.594543,4535.871094 777.594543,4768.997070 
	C738.620972,4768.997070 699.775879,4768.997070 659.525940,4768.997070 
	C626.475708,4590.650879 593.335815,4411.820801 560.195862,4232.990723 
	C559.364685,4233.068848 558.533508,4233.147461 557.702271,4233.225586 
	C567.268921,4411.021484 565.186523,4588.938477 565.684631,4767.833008 
	C538.251648,4771.187012 511.784790,4768.963867 484.752716,4769.773438 
	C484.752716,4536.294922 484.752716,4303.862305 484.752716,4070.725098 
	C527.343201,4070.725098 569.823303,4070.725098 613.655334,4070.725098 
	C646.404358,4251.561035 679.225830,4432.797363 712.047302,4614.033203 
	C712.668640,4614.002441 713.289917,4613.972168 713.911255,4613.941406 
	C713.911255,4609.658691 713.999695,4605.373535 713.887451,4601.093750 
	C713.765198,4596.432129 713.507751,4591.771973 713.221436,4587.116211 
	C710.153564,4537.235840 707.080322,4487.355957 703.985718,4437.477539 
	C696.945618,4324.006836 696.093445,4210.371582 694.899658,4095.781738 
z"/>
<path fill="#FEFEFE" opacity="1.000000" stroke="none" 
	d="
M960.010254,4768.361328 
	C920.782837,4768.973145 882.552979,4769.562988 843.759888,4770.161133 
	C843.759888,4536.423340 843.759888,4303.911133 843.759888,4070.977051 
	C845.344666,4070.663330 846.911133,4070.070068 848.471741,4070.085205 
	C898.455566,4070.572754 948.519470,4069.550049 998.398376,4072.116455 
	C1044.265503,4074.476074 1077.159302,4098.088379 1094.205078,4141.845703 
	C1100.327637,4157.562500 1103.654907,4173.933105 1103.633667,4190.643066 
	C1103.566895,4243.289062 1103.219849,4295.941406 1102.219360,4348.576660 
	C1101.736694,4373.955078 1091.326538,4395.653809 1073.367920,4413.614746 
	C1069.605347,4417.377930 1065.545044,4420.844238 1060.803711,4425.199219 
	C1063.932129,4428.455566 1066.257080,4431.125488 1068.836060,4433.520996 
	C1091.562134,4454.633301 1103.175049,4480.861816 1103.229980,4511.685059 
	C1103.319580,4561.997559 1103.984497,4612.367188 1101.915161,4662.609375 
	C1099.680176,4716.874512 1057.248169,4764.886230 995.995361,4767.650391 
	C984.346191,4768.176270 972.670959,4768.124023 960.010254,4768.361328 
M1010.193970,4365.640625 
	C1010.121826,4310.335938 1010.086487,4255.031250 1009.921570,4199.726562 
	C1009.904785,4194.091797 1009.761414,4188.312988 1008.541382,4182.854980 
	C1005.948242,4171.252930 999.496826,4162.893555 986.813599,4161.254395 
	C981.544128,4160.573242 976.223999,4160.033203 970.917847,4159.939941 
	C959.700317,4159.741699 948.476868,4159.879883 937.263977,4159.879883 
	C934.658936,4176.758301 936.004639,4379.419434 938.770691,4387.896484 
	C951.719116,4387.896484 964.668640,4388.004883 977.615540,4387.867676 
	C992.576904,4387.708984 1004.001831,4381.781738 1010.193970,4365.640625 
M1010.266052,4561.000000 
	C1010.089539,4539.347656 1010.298340,4517.683594 1009.613159,4496.047363 
	C1009.076538,4479.105469 1001.151123,4470.295410 984.309998,4467.937012 
	C972.814758,4466.327148 961.103943,4466.214844 949.481567,4465.577148 
	C945.314636,4465.348633 941.124695,4465.540039 936.800293,4465.540039 
	C936.800293,4537.563965 936.800293,4608.363770 936.800293,4680.240234 
	C952.546265,4679.791016 967.793518,4681.360352 982.926697,4678.683594 
	C999.863831,4675.687500 1007.856018,4666.885742 1009.559875,4649.936523 
	C1009.892395,4646.628418 1009.935913,4643.283203 1009.952515,4639.954102 
	C1010.080322,4614.302734 1010.168640,4588.651367 1010.266052,4561.000000 
z"/>
<path fill="#FDFEFE" opacity="1.000000" stroke="none" 
	d="
M1155.516235,4589.337891 
	C1160.056396,4551.410156 1164.468018,4514.370117 1168.917236,4477.334473 
	C1173.246948,4441.292480 1177.620605,4405.255371 1181.964844,4369.215332 
	C1187.026367,4327.222656 1192.090942,4285.229980 1197.128662,4243.234863 
	C1201.452393,4207.190430 1205.698242,4171.136230 1210.059570,4135.096191 
	C1212.651611,4113.676758 1215.400635,4092.275879 1218.124023,4070.508057 
	C1262.907837,4070.508057 1306.785522,4070.508057 1352.106934,4070.508057 
	C1379.446045,4302.592773 1406.083984,4534.690918 1433.170044,4766.585449 
	C1421.559326,4769.770020 1354.665894,4771.175781 1335.378296,4768.659668 
	C1331.450928,4722.324707 1327.495605,4675.658203 1323.516724,4628.713867 
	C1321.739380,4628.309082 1320.507812,4627.784180 1319.276367,4627.784180 
	C1296.279907,4627.781250 1273.282349,4627.720215 1250.287720,4627.944824 
	C1240.534668,4628.040039 1240.046753,4628.371094 1239.104004,4637.867188 
	C1237.162476,4657.423828 1235.667236,4677.025391 1234.023071,4696.611328 
	C1232.018066,4720.496582 1230.048828,4744.385254 1228.008301,4768.942871 
	C1197.262939,4768.942871 1167.084473,4768.942871 1135.631104,4768.942871 
	C1135.631104,4765.895996 1135.311035,4762.375977 1135.682129,4758.931152 
	C1138.393555,4733.764648 1141.123657,4708.598633 1144.080444,4683.459961 
	C1147.737671,4652.368652 1151.619385,4621.303711 1155.516235,4589.337891 
M1300.443359,4354.347168 
	C1298.402832,4331.461914 1296.379639,4308.575195 1294.317017,4285.691895 
	C1292.284180,4263.140625 1290.345459,4240.580078 1288.117798,4218.047852 
	C1285.881592,4195.428711 1284.794922,4172.638184 1279.486816,4150.438477 
	C1275.828125,4163.216797 1247.129639,4537.958496 1248.710205,4546.036133 
	C1270.940063,4548.442383 1293.305664,4548.191406 1316.520386,4546.254883 
	C1316.098877,4537.565918 1315.947266,4529.940430 1315.322266,4522.353516 
	C1312.889160,4492.817871 1310.371948,4463.288086 1307.758423,4433.767578 
	C1305.468140,4407.896484 1303.006836,4382.040527 1300.443359,4354.347168 
z"/>
<path fill="#1F448B" opacity="1.000000" stroke="none" 
	d="
M1010.065552,4366.481445 
	C1004.001831,4381.781738 992.576904,4387.708984 977.615540,4387.867676 
	C964.668640,4388.004883 951.719116,4387.896484 938.770691,4387.897461 
	C936.004639,4379.419434 934.658936,4176.758301 937.263977,4159.879883 
	C948.476868,4159.879883 959.700317,4159.741699 970.917847,4159.939941 
	C976.223999,4160.033203 981.544128,4160.573242 986.813599,4161.254395 
	C999.496826,4162.893555 1005.948242,4171.252930 1008.541382,4182.854980 
	C1009.761414,4188.312988 1009.904785,4194.091797 1009.921570,4199.726562 
	C1010.086487,4255.031250 1010.121826,4310.335938 1010.065552,4366.481445 
z"/>
<path fill="#1F448B" opacity="1.000000" stroke="none" 
	d="
M1010.267639,4562.000000 
	C1010.168640,4588.651367 1010.080322,4614.302734 1009.952515,4639.954102 
	C1009.935913,4643.283203 1009.892395,4646.628418 1009.559875,4649.936523 
	C1007.856018,4666.885742 999.863831,4675.687500 982.926697,4678.683594 
	C967.793518,4681.360352 952.546265,4679.791016 936.800293,4680.240234 
	C936.800293,4608.363770 936.800293,4537.563965 936.800293,4465.540039 
	C941.124695,4465.540039 945.314636,4465.348633 949.481567,4465.577148 
	C961.103943,4466.214844 972.814758,4466.327148 984.309998,4467.937012 
	C1001.151123,4470.295410 1009.076538,4479.105469 1009.613159,4496.047363 
	C1010.298340,4517.683594 1010.089539,4539.347656 1010.267639,4562.000000 
z"/>
<path fill="#21458C" opacity="1.000000" stroke="none" 
	d="
M1300.532227,4355.262695 
	C1303.006836,4382.040527 1305.468140,4407.896484 1307.758423,4433.767578 
	C1310.371948,4463.288086 1312.889160,4492.817871 1315.322266,4522.353516 
	C1315.947266,4529.940430 1316.098877,4537.565918 1316.520386,4546.254883 
	C1293.305664,4548.191406 1270.940063,4548.442383 1248.710205,4546.036133 
	C1247.129639,4537.958496 1275.828125,4163.216797 1279.486816,4150.438477 
	C1284.794922,4172.638184 1285.881592,4195.428711 1288.117798,4218.047852 
	C1290.345459,4240.580078 1292.284180,4263.140625 1294.317017,4285.691895 
	C1296.379639,4308.575195 1298.402832,4331.461914 1300.532227,4355.262695 
z"/>
</svg>